<svg width="170" height="40" viewBox="0 0 170 40" fill="none" xmlns="http://www.w3.org/2000/svg">
<path d="M7.88912 24.5269V36.1091H14.0663V24.5269L27.3669 24.5537C31.9998 24.5537 35.8605 18.9359 35.8605 13.8461C35.8605 8.57656 31.9998 2.93359 27.3669 2.93359H7.88623V9.0886L14.8471 3.67253L21.9619 9.11076H26.4207C28.7371 9.11076 29.5093 11.5612 29.5093 13.7169C29.5093 15.8726 28.7371 18.3498 26.4207 18.3498L15.0126 18.3765L7.88912 24.5269Z" fill="url(#paint0_linear_1202_4725)"/>
<path d="M32.598 29.9316H22.5601L26.4208 36.1088L37.2308 36.1356L32.598 29.9316Z" fill="url(#paint1_linear_1202_4725)"/>
<path fill-rule="evenodd" clip-rule="evenodd" d="M11.0574 8.33887C11.0136 8.33887 10.9782 8.37433 10.9782 8.41807V11.3482C10.9782 11.392 11.0136 11.4275 11.0574 11.4275H13.9875C14.0313 11.4275 14.0667 11.392 14.0667 11.3482V8.41807C14.0667 8.37433 14.0313 8.33887 13.9875 8.33887H11.0574ZM11.0572 12.945C11.0135 12.945 10.978 12.9804 10.978 13.0242V15.9543C10.978 15.9981 11.0135 16.0335 11.0572 16.0335H13.9874C14.0312 16.0335 14.0666 15.9981 14.0666 15.9543V13.0242C14.0666 12.9804 14.0312 12.945 13.9874 12.945H11.0572ZM15.611 8.41809C15.611 8.37435 15.6465 8.33889 15.6902 8.33889H18.6204C18.6641 8.33889 18.6996 8.37435 18.6996 8.41809V11.3483C18.6996 11.392 18.6641 11.4275 18.6204 11.4275H15.6902C15.6465 11.4275 15.611 11.392 15.611 11.3483V8.41809ZM15.6902 12.945C15.6465 12.945 15.611 12.9804 15.611 13.0242V15.9543C15.611 15.9981 15.6465 16.0335 15.6902 16.0335H18.6204C18.6641 16.0335 18.6996 15.9981 18.6996 15.9543V13.0242C18.6996 12.9804 18.6641 12.945 18.6204 12.945H15.6902Z" fill="url(#paint2_linear_1202_4725)"/>
<path d="M49.9166 35.9553C47.6208 35.9553 45.5819 35.4787 43.7997 34.5254C42.0175 33.5423 40.5978 32.2017 39.5405 30.5036C38.5135 28.8056 38 26.8692 38 24.6945C38 22.5495 38.4984 20.643 39.4952 18.9747C40.5223 17.2766 41.9118 15.936 43.6638 14.953C45.4158 13.9401 47.3641 13.4336 49.5088 13.4336C51.6232 13.4336 53.481 13.9103 55.0819 14.8636C56.7131 15.7871 57.9818 17.0681 58.888 18.7066C59.8244 20.3153 60.2926 22.1474 60.2926 24.2029C60.2926 24.5902 60.2624 24.9924 60.202 25.4094C60.1718 25.7967 60.0962 26.2436 59.9754 26.75L41.5795 26.7947V22.4155L57.2115 22.3708L54.8101 24.2029C54.7496 22.9219 54.508 21.8495 54.0851 20.9855C53.6924 20.1216 53.1034 19.4662 52.318 19.0194C51.5628 18.5427 50.6264 18.3044 49.5088 18.3044C48.3307 18.3044 47.3037 18.5725 46.4277 19.1087C45.5517 19.6152 44.872 20.345 44.3887 21.2983C43.9356 22.2219 43.7091 23.3241 43.7091 24.6051C43.7091 25.9159 43.9507 27.0628 44.434 28.0459C44.9476 28.9992 45.6725 29.744 46.6089 30.2802C47.5453 30.7866 48.6328 31.0399 49.8713 31.0399C50.9889 31.0399 52.0008 30.8611 52.907 30.5036C53.8132 30.1164 54.5986 29.5503 55.2632 28.8056L58.752 32.2464C57.6948 33.4678 56.3959 34.3913 54.8554 35.0169C53.345 35.6425 51.6988 35.9553 49.9166 35.9553Z" fill="#152242"/>
<path d="M80.0485 35.5085V23.1305C80.0485 21.8495 79.6407 20.8068 78.8251 20.0025C78.0095 19.1981 76.9523 18.7959 75.6534 18.7959C74.8076 18.7959 74.0525 18.9747 73.3879 19.3322C72.7234 19.6897 72.1947 20.1961 71.8021 20.8515C71.4396 21.5069 71.2583 22.2665 71.2583 23.1305L68.9475 21.9686C68.9475 20.2706 69.31 18.7959 70.035 17.5447C70.7901 16.2637 71.8172 15.2657 73.116 14.5508C74.4451 13.8358 75.9404 13.4783 77.6017 13.4783C79.2027 13.4783 80.6375 13.8805 81.9062 14.6848C83.1749 15.4594 84.1717 16.4872 84.8967 17.7682C85.6216 19.0194 85.9841 20.3748 85.9841 21.8346V35.5085H80.0485ZM65.3227 35.5085V13.9252H71.2583V35.5085H65.3227Z" fill="#152242"/>
<path d="M99.6462 36C98.4077 36 97.1843 35.8362 95.9761 35.5085C94.798 35.1808 93.7106 34.7339 92.7137 34.1679C91.7169 33.5721 90.856 32.8571 90.1311 32.023L93.6652 28.4928C94.4204 29.3269 95.2964 29.9525 96.2932 30.3696C97.29 30.7866 98.3926 30.9952 99.6009 30.9952C100.567 30.9952 101.292 30.8611 101.776 30.593C102.289 30.3249 102.546 29.9227 102.546 29.3865C102.546 28.7907 102.274 28.3289 101.73 28.0012C101.217 27.6735 100.537 27.4054 99.6915 27.1969C98.8457 26.9586 97.9546 26.7053 97.0182 26.4372C96.112 26.1393 95.236 25.7669 94.3902 25.3201C93.5444 24.8434 92.8497 24.2029 92.3059 23.3986C91.7924 22.5644 91.5357 21.492 91.5357 20.1812C91.5357 18.8108 91.8679 17.6192 92.5325 16.6063C93.2272 15.5934 94.209 14.804 95.4776 14.238C96.7463 13.672 98.2416 13.3889 99.9633 13.3889C101.776 13.3889 103.407 13.7017 104.857 14.3273C106.337 14.9529 107.56 15.8914 108.527 17.1426L104.947 20.6727C104.283 19.8684 103.528 19.2875 102.682 18.93C101.866 18.5725 100.975 18.3938 100.009 18.3938C99.1327 18.3938 98.453 18.5278 97.9697 18.7959C97.5166 19.0641 97.2901 19.4364 97.2901 19.9131C97.2901 20.4493 97.5468 20.8664 98.0603 21.1643C98.604 21.4622 99.2988 21.7303 100.145 21.9686C100.99 22.1772 101.866 22.4304 102.773 22.7283C103.709 22.9964 104.585 23.3837 105.401 23.8901C106.246 24.3966 106.926 25.0669 107.44 25.901C107.983 26.7351 108.255 27.8076 108.255 29.1184C108.255 31.2335 107.485 32.9167 105.944 34.1679C104.404 35.3893 102.304 36 99.6462 36Z" fill="#152242"/>
<path d="M122.86 35.9553C120.836 35.9553 119.024 35.4638 117.423 34.4807C115.822 33.4976 114.553 32.157 113.617 30.459C112.711 28.7609 112.258 26.8543 112.258 24.7392C112.258 22.5942 112.711 20.6727 113.617 18.9747C114.553 17.2766 115.807 15.936 117.378 14.953C118.979 13.9699 120.806 13.4783 122.86 13.4783C124.431 13.4783 125.836 13.7911 127.074 14.4167C128.343 15.0423 129.355 15.9211 130.11 17.0532C130.895 18.1554 131.318 19.4066 131.378 20.8068V28.4928C131.318 29.8929 130.91 31.159 130.155 32.2911C129.4 33.4231 128.388 34.3168 127.119 34.9722C125.851 35.6276 124.431 35.9553 122.86 35.9553ZM123.857 30.5483C124.975 30.5483 125.941 30.31 126.757 29.8333C127.603 29.3269 128.252 28.6417 128.705 27.7778C129.188 26.8841 129.43 25.8563 129.43 24.6945C129.43 23.5624 129.188 22.5644 128.705 21.7005C128.252 20.8068 127.603 20.1216 126.757 19.645C125.941 19.1385 124.99 18.8853 123.902 18.8853C122.785 18.8853 121.803 19.1385 120.957 19.645C120.142 20.1514 119.492 20.8366 119.009 21.7005C118.556 22.5644 118.329 23.5624 118.329 24.6945C118.329 25.8563 118.556 26.8841 119.009 27.7778C119.492 28.6417 120.157 29.3269 121.002 29.8333C121.848 30.31 122.8 30.5483 123.857 30.5483ZM135.003 35.5085H129.113V29.6993L130.064 24.4264L129.068 19.2428V3H135.003V35.5085Z" fill="#152242"/>
<path d="M150.766 35.9553C148.773 35.9553 146.975 35.4638 145.374 34.4807C143.773 33.4976 142.52 32.157 141.614 30.459C140.707 28.7609 140.254 26.8543 140.254 24.7392C140.254 22.5942 140.707 20.6727 141.614 18.9747C142.52 17.2766 143.773 15.936 145.374 14.953C146.975 13.9699 148.773 13.4783 150.766 13.4783C152.337 13.4783 153.742 13.7911 154.98 14.4167C156.219 15.0423 157.2 15.9211 157.925 17.0532C158.68 18.1554 159.088 19.4066 159.149 20.8068V28.5821C159.088 30.0121 158.68 31.2782 157.925 32.3804C157.2 33.4827 156.219 34.3615 154.98 35.0169C153.742 35.6425 152.337 35.9553 150.766 35.9553ZM151.854 30.5483C153.515 30.5483 154.859 30.0121 155.886 28.9396C156.913 27.8374 157.427 26.4223 157.427 24.6945C157.427 23.5624 157.185 22.5644 156.702 21.7005C156.249 20.8068 155.599 20.1216 154.754 19.645C153.938 19.1385 152.971 18.8853 151.854 18.8853C150.766 18.8853 149.8 19.1385 148.954 19.645C148.138 20.1216 147.489 20.8068 147.006 21.7005C146.552 22.5644 146.326 23.5624 146.326 24.6945C146.326 25.8563 146.552 26.8841 147.006 27.7778C147.489 28.6417 148.138 29.3269 148.954 29.8333C149.8 30.31 150.766 30.5483 151.854 30.5483ZM157.11 35.5085V29.6993L158.061 24.4264L157.11 19.2428V13.9252H163V35.5085H157.11Z" fill="#152242"/>
<defs>
<linearGradient id="paint0_linear_1202_4725" x1="5.82044" y1="18.3049" x2="37.3238" y2="18.3049" gradientUnits="userSpaceOnUse">
<stop stop-color="#00C6FF"/>
<stop offset="1" stop-color="#0072FF"/>
</linearGradient>
<linearGradient id="paint1_linear_1202_4725" x1="21.4767" y1="32.8061" x2="37.9982" y2="32.8061" gradientUnits="userSpaceOnUse">
<stop stop-color="#00C6FF"/>
<stop offset="1" stop-color="#0072FF"/>
</linearGradient>
<linearGradient id="paint2_linear_1202_4725" x1="10.4078" y1="11.9041" x2="19.1034" y2="11.9041" gradientUnits="userSpaceOnUse">
<stop stop-color="#00C6FF"/>
<stop offset="1" stop-color="#0072FF"/>
</linearGradient>
</defs>
</svg>
