<svg width="80" height="80" viewBox="0 0 80 80" fill="none" xmlns="http://www.w3.org/2000/svg">
<rect x="6.5" y="6.5" width="66" height="66" rx="18.5" stroke="url(#paint0_linear_518_12011)" stroke-width="3"/>
<path d="M34.8786 52.2825C32.9485 52.2825 31.2184 51.7882 29.6884 50.7995C28.1819 49.8109 26.9815 48.3751 26.087 46.492C25.2161 44.6089 24.7806 42.3257 24.7806 39.6423C24.7806 36.9589 25.2161 34.6757 26.087 32.7926C26.9815 30.9095 28.1819 29.4737 29.6884 28.4851C31.2184 27.4965 32.9485 27.0022 34.8786 27.0022C36.7852 27.0022 38.5036 27.4965 40.0336 28.4851C41.5636 29.4737 42.764 30.9095 43.6349 32.7926C44.5059 34.6757 44.9413 36.9589 44.9413 39.6423C44.9413 42.3257 44.5059 44.6089 43.6349 46.492C42.764 48.3751 41.5636 49.8109 40.0336 50.7995C38.5036 51.7882 36.7852 52.2825 34.8786 52.2825ZM34.8786 49.1401C36.1732 49.1401 37.3031 48.787 38.2682 48.0808C39.2568 47.3747 40.0218 46.3155 40.5632 44.9032C41.1281 43.4908 41.4106 41.7372 41.4106 39.6423C41.4106 37.5474 41.1281 35.7938 40.5632 34.3815C40.0218 32.9692 39.2568 31.9099 38.2682 31.2038C37.3031 30.4976 36.1732 30.1445 34.8786 30.1445C33.584 30.1445 32.4424 30.4976 31.4538 31.2038C30.4652 31.9099 29.6884 32.9692 29.1235 34.3815C28.5821 35.7938 28.3114 37.5474 28.3114 39.6423C28.3114 41.7372 28.5821 43.4908 29.1235 44.9032C29.6884 46.3155 30.4652 47.3747 31.4538 48.0808C32.4424 48.787 33.584 49.1401 34.8786 49.1401ZM52.6441 52V41.5H56.7691C58.1191 41.5 59.1841 41.8 59.9641 42.4C60.7441 42.99 61.1341 43.855 61.1341 44.995C61.1341 46.135 60.7441 47.005 59.9641 47.605C59.1841 48.205 58.1191 48.505 56.7691 48.505H53.4841L54.1591 47.8V52H52.6441ZM54.1591 47.95L53.4841 47.26H56.7691C57.6891 47.26 58.3941 47.065 58.8841 46.675C59.3741 46.285 59.6191 45.73 59.6191 45.01C59.6191 44.3 59.3741 43.755 58.8841 43.375C58.3941 42.995 57.6891 42.805 56.7691 42.805H53.4841L54.1591 42.055V47.95ZM51.1141 50.245V49.39H57.4891V50.245H51.1141Z" fill="url(#paint1_linear_518_12011)"/>
<defs>
<linearGradient id="paint0_linear_518_12011" x1="-0.0953841" y1="36.97" x2="77.6092" y2="36.97" gradientUnits="userSpaceOnUse">
<stop stop-color="#00C6FF"/>
<stop offset="1" stop-color="#0072FF"/>
</linearGradient>
<linearGradient id="paint1_linear_518_12011" x1="20.12" y1="37.5567" x2="64.04" y2="37.5567" gradientUnits="userSpaceOnUse">
<stop stop-color="#00C6FF"/>
<stop offset="1" stop-color="#0072FF"/>
</linearGradient>
</defs>
</svg>
