<svg width="58" height="78" viewBox="0 0 58 78" fill="none" xmlns="http://www.w3.org/2000/svg">
<g id="Group 422">
<path id="Vector 479" d="M9.08643 40.0359L1.99219 1.94238C7.0595 1.94238 11.6201 2.94484 12.1268 5.451L17.1941 31.0138H45.0644C49.6249 31.0138 51.1451 35.0236 51.1451 40.0359H9.08643Z" stroke="url(#paint0_linear_1340_10694)" stroke-width="3"/>
<path id="Union" fill-rule="evenodd" clip-rule="evenodd" d="M8.18734 46.5767H9.44321H17.8883H19.7116L19.3602 48.3658L17.6704 56.9683H42.8347L41.1449 48.3658L40.7935 46.5767H42.6168H51.0618H52.3177L52.5385 47.813L57.528 75.7543L57.8429 77.518H56.0513H48.1052H46.8712L46.6334 76.3071L45.1136 68.57H15.3915L13.8717 76.3071L13.6338 77.518H12.3998H4.45369H2.66211L2.97705 75.7543L7.96657 47.813L8.18734 46.5767ZM10.6991 49.5767L6.24528 74.518H11.1658L16.065 49.5767H10.6991ZM49.806 49.5767L54.2598 74.518H49.3393L44.4401 49.5767H49.806ZM17.3445 60.0204L17.3564 59.9683H43.1773L44.3777 65.57H16.0819C16.2783 64.6249 16.5318 63.5131 16.7811 62.4414C16.8554 62.1218 16.9292 61.8065 17.0001 61.5034L17.0004 61.502C17.1289 60.9529 17.248 60.4437 17.3445 60.0204Z" fill="url(#paint1_linear_1340_10694)"/>
</g>
<defs>
<linearGradient id="paint0_linear_1340_10694" x1="-1.63757" y1="19.5924" x2="53.7162" y2="19.5924" gradientUnits="userSpaceOnUse">
<stop stop-color="#00C6FF"/>
<stop offset="1" stop-color="#0072FF"/>
</linearGradient>
<linearGradient id="paint1_linear_1340_10694" x1="-1.41279" y1="60.9128" x2="60.7294" y2="60.9128" gradientUnits="userSpaceOnUse">
<stop stop-color="#00C6FF"/>
<stop offset="1" stop-color="#0072FF"/>
</linearGradient>
</defs>
</svg>
