<svg width="65" height="69" viewBox="0 0 65 69" fill="none" xmlns="http://www.w3.org/2000/svg">
<g id="Group 403">
<path id="Union" fill-rule="evenodd" clip-rule="evenodd" d="M59.0864 24.8528H5.16299C3.84424 24.8528 2.88647 26.1067 3.23346 27.379L9.24739 49.4301C9.48469 50.3002 10.275 50.9039 11.1769 50.9039H53.0724C53.9743 50.9039 54.7647 50.3002 55.002 49.4301L61.0159 27.379C61.3629 26.1067 60.4051 24.8528 59.0864 24.8528ZM5.16299 21.8528C1.86612 21.8528 -0.528297 24.9877 0.339167 28.1684L6.35309 50.2194C6.94636 52.3947 8.92216 53.9039 11.1769 53.9039H16.1812L12.5573 66.5877C12.3297 67.3842 12.7909 68.2145 13.5875 68.442C14.384 68.6696 15.2142 68.2084 15.4418 67.4118L19.3013 53.9039H45.6978L49.5573 67.4118C49.7848 68.2084 50.6151 68.6696 51.4116 68.442C52.2082 68.2145 52.6694 67.3842 52.4418 66.5877L48.8179 53.9039H53.0724C55.3272 53.9039 57.303 52.3947 57.8962 50.2194L63.9102 28.1684C64.7776 24.9877 62.3832 21.8528 59.0864 21.8528H5.16299Z" fill="url(#paint0_linear_1614_22858)"/>
<path id="Rectangle 454" d="M10.4961 2.5L53.9961 3L45.9961 39H18.4961L10.4961 2.5Z" fill="white"/>
<path id="Union_2" fill-rule="evenodd" clip-rule="evenodd" d="M13.6741 3H50.5715C51.8619 3 52.8145 4.20378 52.518 5.45958L47.3515 27.3411C46.0189 26.4959 44.4245 25.8169 42.7053 25.2955C40.0605 24.4934 36.9937 24.0259 33.8377 23.9408C28.0459 23.7848 21.7022 24.9145 17.0267 27.9026L11.7276 5.45958C11.4311 4.20378 12.3838 3 13.6741 3ZM17.7662 31.0346L18.998 36.2519C19.2112 37.1546 20.017 37.7923 20.9445 37.7923H43.3011C44.2286 37.7923 45.0345 37.1546 45.2476 36.2519L46.6072 30.4935C45.5146 29.5979 43.8889 28.7894 41.8346 28.1664C39.4805 27.4524 36.6834 27.0186 33.7569 26.9398C27.8732 26.7812 21.762 28.0605 17.7662 31.0346ZM8.80792 6.14896C8.06665 3.00944 10.4483 0 13.6741 0H50.5715C53.7974 0 56.179 3.00945 55.4377 6.14896L48.1673 36.9412C47.6345 39.198 45.6199 40.7923 43.3011 40.7923H20.9445C18.6257 40.7923 16.6112 39.198 16.0783 36.9412L8.80792 6.14896Z" fill="url(#paint1_linear_1614_22858)"/>
</g>
<defs>
<linearGradient id="paint0_linear_1614_22858" x1="-4.56076" y1="43.4661" x2="67.4332" y2="43.4661" gradientUnits="userSpaceOnUse">
<stop stop-color="#00C6FF"/>
<stop offset="1" stop-color="#0072FF"/>
</linearGradient>
<linearGradient id="paint1_linear_1614_22858" x1="5.20835" y1="18.9004" x2="58.0271" y2="18.9004" gradientUnits="userSpaceOnUse">
<stop stop-color="#00C6FF"/>
<stop offset="1" stop-color="#0072FF"/>
</linearGradient>
</defs>
</svg>
