<svg width="80" height="80" viewBox="0 0 80 80" fill="none" xmlns="http://www.w3.org/2000/svg">
<mask id="path-1-outside-1_212_1983" maskUnits="userSpaceOnUse" x="5" y="3.51758" width="72" height="73" fill="black">
<rect fill="white" x="5" y="3.51758" width="72" height="73"/>
<path fill-rule="evenodd" clip-rule="evenodd" d="M13.6403 55.6818C10.1056 50.6537 8.04285 44.5988 8.04285 38.0828C8.04285 20.6498 22.8079 6.51758 41.0214 6.51758C59.235 6.51758 74 20.6498 74 38.0828C74 55.5158 59.235 69.648 41.0214 69.648C35.0941 69.648 29.532 68.1513 24.7252 65.5312L9.71063 72.846C8.91418 73.234 8.04382 72.4712 8.32397 71.6307L13.6403 55.6818Z"/>
</mask>
<path d="M13.6403 55.6818L16.0946 53.9565L16.9649 55.1947L16.4863 56.6305L13.6403 55.6818ZM24.7252 65.5312L23.4113 62.8342L24.8023 62.1565L26.161 62.8971L24.7252 65.5312ZM9.71063 72.846L11.0245 75.5429H11.0245L9.71063 72.846ZM8.32397 71.6307L5.47793 70.6821L8.32397 71.6307ZM11.0429 38.0828C11.0429 43.9529 12.8984 49.4099 16.0946 53.9565L11.186 57.4071C7.31288 51.8974 5.04285 45.2447 5.04285 38.0828H11.0429ZM41.0214 9.51758C24.3395 9.51758 11.0429 22.4291 11.0429 38.0828H5.04285C5.04285 18.8705 21.2762 3.51758 41.0214 3.51758V9.51758ZM71 38.0828C71 22.4291 57.7033 9.51758 41.0214 9.51758V3.51758C60.7666 3.51758 77 18.8705 77 38.0828H71ZM41.0214 66.648C57.7033 66.648 71 53.7364 71 38.0828H77C77 57.2951 60.7666 72.648 41.0214 72.648V66.648ZM26.161 62.8971C30.5341 65.2808 35.6034 66.648 41.0214 66.648V72.648C34.5848 72.648 28.53 71.0218 23.2894 68.1653L26.161 62.8971ZM26.0391 68.2281L11.0245 75.5429L8.39672 70.149L23.4113 62.8342L26.0391 68.2281ZM11.0245 75.5429C7.83874 77.095 4.35728 74.044 5.47793 70.6821L11.17 72.5794C11.7304 70.8985 9.98962 69.373 8.39673 70.149L11.0245 75.5429ZM5.47793 70.6821L10.7942 54.7331L16.4863 56.6305L11.17 72.5794L5.47793 70.6821Z" fill="url(#paint0_linear_212_1983)" mask="url(#path-1-outside-1_212_1983)"/>
<circle cx="1.5" cy="1.5" r="1.5" transform="matrix(-1 0 0 1 53.0117 37.4824)" fill="url(#paint1_linear_212_1983)"/>
<circle cx="1.5" cy="1.5" r="1.5" transform="matrix(-1 0 0 1 43.0195 37.4824)" fill="url(#paint2_linear_212_1983)"/>
<circle cx="1.5" cy="1.5" r="1.5" transform="matrix(-1 0 0 1 33.0273 37.4824)" fill="url(#paint3_linear_212_1983)"/>
<defs>
<linearGradient id="paint0_linear_212_1983" x1="78.8707" y1="37.2979" x2="4.59279" y2="37.2979" gradientUnits="userSpaceOnUse">
<stop stop-color="#00C6FF"/>
<stop offset="1" stop-color="#0072FF"/>
</linearGradient>
<linearGradient id="paint1_linear_212_1983" x1="-0.221538" y1="1.39" x2="3.15692" y2="1.39" gradientUnits="userSpaceOnUse">
<stop stop-color="#00C6FF"/>
<stop offset="1" stop-color="#0072FF"/>
</linearGradient>
<linearGradient id="paint2_linear_212_1983" x1="-0.221538" y1="1.39" x2="3.15692" y2="1.39" gradientUnits="userSpaceOnUse">
<stop stop-color="#00C6FF"/>
<stop offset="1" stop-color="#0072FF"/>
</linearGradient>
<linearGradient id="paint3_linear_212_1983" x1="-0.221538" y1="1.39" x2="3.15692" y2="1.39" gradientUnits="userSpaceOnUse">
<stop stop-color="#00C6FF"/>
<stop offset="1" stop-color="#0072FF"/>
</linearGradient>
</defs>
</svg>
