<svg width="80" height="80" viewBox="0 0 80 80" fill="none" xmlns="http://www.w3.org/2000/svg">
<g id="square">
<rect id="Rectangle 510" x="11.5" y="3.5" width="57" height="73" rx="4.5" stroke="url(#paint0_linear_381_4710)" stroke-width="3"/>
<rect id="Rectangle 511" x="21" y="12" width="33" height="3" rx="1.5" fill="url(#paint1_linear_381_4710)"/>
<rect id="Rectangle 512" x="21" y="20" width="33" height="3" rx="1.5" fill="url(#paint2_linear_381_4710)"/>
<rect id="Rectangle 513" x="21" y="28" width="38" height="3" rx="1.5" fill="url(#paint3_linear_381_4710)"/>
<rect id="Rectangle 514" x="21" y="36" width="27" height="3" rx="1.5" fill="url(#paint4_linear_381_4710)"/>
<rect id="Rectangle 515" x="21" y="44" width="32" height="3" rx="1.5" fill="url(#paint5_linear_381_4710)"/>
<rect id="Rectangle 516" x="21" y="52" width="17" height="3" rx="1.5" fill="url(#paint6_linear_381_4710)"/>
<circle id="Ellipse 112" cx="52.5" cy="62.5" r="6" stroke="url(#paint7_linear_381_4710)" stroke-width="3"/>
</g>
<defs>
<linearGradient id="paint0_linear_381_4710" x1="5.56923" y1="37.2133" x2="73.1385" y2="37.2133" gradientUnits="userSpaceOnUse">
<stop stop-color="#00C6FF"/>
<stop offset="1" stop-color="#0072FF"/>
</linearGradient>
<linearGradient id="paint1_linear_381_4710" x1="18.5631" y1="13.39" x2="55.7262" y2="13.39" gradientUnits="userSpaceOnUse">
<stop stop-color="#00C6FF"/>
<stop offset="1" stop-color="#0072FF"/>
</linearGradient>
<linearGradient id="paint2_linear_381_4710" x1="18.5631" y1="21.39" x2="55.7262" y2="21.39" gradientUnits="userSpaceOnUse">
<stop stop-color="#00C6FF"/>
<stop offset="1" stop-color="#0072FF"/>
</linearGradient>
<linearGradient id="paint3_linear_381_4710" x1="18.1938" y1="29.39" x2="60.9877" y2="29.39" gradientUnits="userSpaceOnUse">
<stop stop-color="#00C6FF"/>
<stop offset="1" stop-color="#0072FF"/>
</linearGradient>
<linearGradient id="paint4_linear_381_4710" x1="19.0062" y1="37.39" x2="49.4123" y2="37.39" gradientUnits="userSpaceOnUse">
<stop stop-color="#00C6FF"/>
<stop offset="1" stop-color="#0072FF"/>
</linearGradient>
<linearGradient id="paint5_linear_381_4710" x1="18.6369" y1="45.39" x2="54.6738" y2="45.39" gradientUnits="userSpaceOnUse">
<stop stop-color="#00C6FF"/>
<stop offset="1" stop-color="#0072FF"/>
</linearGradient>
<linearGradient id="paint6_linear_381_4710" x1="19.7446" y1="53.39" x2="38.8892" y2="53.39" gradientUnits="userSpaceOnUse">
<stop stop-color="#00C6FF"/>
<stop offset="1" stop-color="#0072FF"/>
</linearGradient>
<linearGradient id="paint7_linear_381_4710" x1="43.8923" y1="61.95" x2="60.7846" y2="61.95" gradientUnits="userSpaceOnUse">
<stop stop-color="#00C6FF"/>
<stop offset="1" stop-color="#0072FF"/>
</linearGradient>
</defs>
</svg>
