<svg width="80" height="80" viewBox="0 0 80 80" fill="none" xmlns="http://www.w3.org/2000/svg">
<g id="attention">
<path id="Union" fill-rule="evenodd" clip-rule="evenodd" d="M40.9967 11L8.95379 66.5H73.0397L40.9967 11ZM42.7288 8C41.959 6.66667 40.0345 6.66667 39.2647 8L5.48968 66.5C4.71988 67.8333 5.68213 69.5 7.22173 69.5H74.7717C76.3113 69.5 77.2736 67.8333 76.5038 66.5L42.7288 8ZM42.9967 55.5C42.9967 56.3284 42.3252 57 41.4967 57C40.6683 57 39.9967 56.3284 39.9967 55.5C39.9967 54.6716 40.6683 54 41.4967 54C42.3252 54 42.9967 54.6716 42.9967 55.5ZM41.4967 26C40.6683 26 39.9967 26.6716 39.9967 27.5V48.5C39.9967 49.3284 40.6683 50 41.4967 50C42.3252 50 42.9967 49.3284 42.9967 48.5V27.5C42.9967 26.6716 42.3252 26 41.4967 26Z" fill="url(#paint0_linear_493_7249)"/>
</g>
<defs>
<linearGradient id="paint0_linear_493_7249" x1="-0.0653809" y1="35.9583" x2="80.5176" y2="35.9583" gradientUnits="userSpaceOnUse">
<stop stop-color="#00C6FF"/>
<stop offset="1" stop-color="#0072FF"/>
</linearGradient>
</defs>
</svg>
