<svg width="80" height="80" viewBox="0 0 80 80" fill="none" xmlns="http://www.w3.org/2000/svg">
<path fill-rule="evenodd" clip-rule="evenodd" d="M52 15H28C25.7909 15 24 16.7909 24 19V22H56V19C56 16.7909 54.2091 15 52 15ZM21 19V22H12C8.13401 22 5 25.134 5 29V44V47V61C5 64.866 8.13401 68 12 68H67C70.866 68 74 64.866 74 61V29C74 25.134 70.866 22 67 22H59V19C59 15.134 55.866 12 52 12H28C24.134 12 21 15.134 21 19ZM8 47V61C8 63.2091 9.79086 65 12 65H67C69.2091 65 71 63.2091 71 61V47H54C54 50.866 50.866 54 47 54H33C29.134 54 26 50.866 26 47H8ZM71 44V29C71 26.7909 69.2091 25 67 25H59H56H24H21H12C9.79086 25 8 26.7909 8 29V44H26C26 40.134 29.134 37 33 37H47C50.866 37 54 40.134 54 44H71ZM33 40H47C49.2091 40 51 41.7909 51 44V47C51 49.2091 49.2091 51 47 51H33C30.7909 51 29 49.2091 29 47V44C29 41.7909 30.7909 40 33 40Z" fill="url(#paint0_linear_95_202)"/>
<defs>
<linearGradient id="paint0_linear_95_202" x1="-0.0953841" y1="37.9467" x2="77.6092" y2="37.9467" gradientUnits="userSpaceOnUse">
<stop stop-color="#00C6FF"/>
<stop offset="1" stop-color="#0072FF"/>
</linearGradient>
</defs>
</svg>
