<svg width="80" height="80" viewBox="0 0 80 80" fill="none" xmlns="http://www.w3.org/2000/svg">
<path fill-rule="evenodd" clip-rule="evenodd" d="M12 10H68C69.6569 10 71 11.3431 71 13V68C71 69.6569 69.6569 71 68 71H12C10.3431 71 9 69.6569 9 68V13C9 11.3431 10.3431 10 12 10ZM6 13C6 9.68629 8.68629 7 12 7H68C71.3137 7 74 9.68629 74 13V68C74 71.3137 71.3137 74 68 74H12C8.68629 74 6 71.3137 6 68V13ZM40.5607 18.9393C39.9749 18.3536 39.0251 18.3536 38.4393 18.9393L28.8934 28.4853C28.3076 29.0711 28.3076 30.0208 28.8934 30.6066C29.4792 31.1924 30.4289 31.1924 31.0147 30.6066L38 23.6213V61C38 61.8284 38.6716 62.5 39.5 62.5C40.3284 62.5 41 61.8284 41 61V23.6213L47.9853 30.6066C48.5711 31.1924 49.5208 31.1924 50.1066 30.6066C50.6924 30.0208 50.6924 29.0711 50.1066 28.4853L40.5607 18.9393Z" fill="url(#paint0_linear_489_6382)"/>
<defs>
<linearGradient id="paint0_linear_489_6382" x1="0.978462" y1="38.0433" x2="77.5569" y2="38.0433" gradientUnits="userSpaceOnUse">
<stop stop-color="#00C6FF"/>
<stop offset="1" stop-color="#0072FF"/>
</linearGradient>
</defs>
</svg>
