<svg width="80" height="80" viewBox="0 0 80 80" fill="none" xmlns="http://www.w3.org/2000/svg">
<path fill-rule="evenodd" clip-rule="evenodd" d="M35.1089 54.2256L34.4128 53.8237H34V27.2962H34.3077L35.0038 26.8942L58.7312 13.1953C61.3978 11.6557 64.7312 13.5802 64.7312 16.6594L64.7312 64.3998C64.7312 67.479 61.3978 69.4035 58.7312 67.8639L35.1089 54.2256ZM34 24.0097V23.9998H31V24.2962H16C12.134 24.2962 9 27.4302 9 31.2962V49.8237C9 53.6897 12.134 56.8237 16 56.8237H31V56.9998H33.9139L57.2312 70.462C61.8978 73.1563 67.7312 69.7884 67.7312 64.3998L67.7312 16.6594C67.7312 11.2708 61.8978 7.90289 57.2312 10.5972L34 24.0097ZM31 53.8237H16C13.7909 53.8237 12 52.0328 12 49.8237V31.2962C12 29.087 13.7909 27.2962 16 27.2962H31V53.8237Z" fill="url(#paint0_linear_212_1981)"/>
<rect x="-0.0546453" y="2.12062" width="5.88321" height="85.913" rx="2.9416" transform="matrix(-0.725087 0.688657 0.688657 0.725087 10.8868 7.62062)" fill="url(#paint1_linear_212_1981)" stroke="white" stroke-width="3"/>
<defs>
<linearGradient id="paint0_linear_212_1981" x1="4.66293" y1="38.265" x2="70.8032" y2="38.265" gradientUnits="userSpaceOnUse">
<stop stop-color="#00C6FF"/>
<stop offset="1" stop-color="#0072FF"/>
</linearGradient>
<linearGradient id="paint1_linear_212_1981" x1="-0.655991" y1="41.1964" x2="9.34787" y2="41.1964" gradientUnits="userSpaceOnUse">
<stop stop-color="#00C6FF"/>
<stop offset="1" stop-color="#0072FF"/>
</linearGradient>
</defs>
</svg>
