<svg width="80" height="80" viewBox="0 0 80 80" fill="none" xmlns="http://www.w3.org/2000/svg">
<mask id="path-1-inside-1_95_216" fill="white">
<path fill-rule="evenodd" clip-rule="evenodd" d="M30.3182 57.0264C29.9833 57.0756 29.6408 57.101 29.2923 57.101H11C7.134 57.101 4 53.967 4 50.101V31.8088C4 27.9428 7.13401 24.8088 11 24.8088H26.3047L51.8037 10.0869C56.4703 7.39264 62.3037 10.7605 62.3037 16.1491L62.3037 63.3689C62.3037 68.7575 56.4704 72.1254 51.8037 69.4311L30.3182 57.0264Z"/>
</mask>
<path d="M30.3182 57.0264L31.8182 54.4283L30.9146 53.9066L29.8822 54.0582L30.3182 57.0264ZM26.3047 24.8088V27.8088H27.1086L27.8047 27.4068L26.3047 24.8088ZM51.8037 10.0869L50.3037 7.48886V7.48886L51.8037 10.0869ZM62.3037 16.1491H59.3037H62.3037ZM62.3037 63.3689H65.3037H62.3037ZM51.8037 69.4311L53.3037 66.833L51.8037 69.4311ZM29.8822 54.0582C29.6913 54.0863 29.4944 54.101 29.2923 54.101V60.101C29.7871 60.101 30.2753 60.0649 30.7541 59.9946L29.8822 54.0582ZM29.2923 54.101H11V60.101H29.2923V54.101ZM11 54.101C8.79086 54.101 7 52.3102 7 50.101H1C1 55.6239 5.47715 60.101 11 60.101V54.101ZM7 50.101V31.8088H1V50.101H7ZM7 31.8088C7 29.5996 8.79086 27.8088 11 27.8088V21.8088C5.47716 21.8088 1 26.2859 1 31.8088H7ZM11 27.8088H26.3047V21.8088H11V27.8088ZM27.8047 27.4068L53.3037 12.685L50.3037 7.48886L24.8047 22.2107L27.8047 27.4068ZM53.3037 12.685C55.9704 11.1454 59.3037 13.0699 59.3037 16.1491H65.3037C65.3037 8.45111 56.9703 3.63986 50.3037 7.48886L53.3037 12.685ZM59.3037 16.1491L59.3037 63.3689H65.3037L65.3037 16.1491L59.3037 16.1491ZM59.3037 63.3689C59.3037 66.4481 55.9704 68.3726 53.3037 66.833L50.3037 72.0292C56.9704 75.8782 65.3037 71.0669 65.3037 63.3689H59.3037ZM53.3037 66.833L31.8182 54.4283L28.8182 59.6245L50.3037 72.0292L53.3037 66.833Z" fill="url(#paint0_linear_95_216)" mask="url(#path-1-inside-1_95_216)"/>
<path fill-rule="evenodd" clip-rule="evenodd" d="M67 48.2753C67 47.2684 67.7485 46.441 68.6498 45.9922C70.6357 45.0032 72 42.9528 72 40.5837C72 38.2146 70.6357 36.1641 68.6498 35.1751C67.7485 34.7263 67 33.8989 67 32.892C67 31.665 68.0754 30.6912 69.2353 31.0911C73.172 32.4486 76 36.1859 76 40.5837C76 44.9815 73.172 48.7188 69.2353 50.0762C68.0754 50.4762 67 49.5023 67 48.2753Z" fill="url(#paint1_linear_95_216)"/>
<rect x="69.2851" y="6.12062" width="5.88321" height="85.913" rx="2.9416" transform="rotate(43.5239 69.2851 6.12062)" fill="url(#paint2_linear_95_216)" stroke="white" stroke-width="3"/>
<defs>
<linearGradient id="paint0_linear_95_216" x1="-0.305503" y1="37.5135" x2="65.3534" y2="37.5135" gradientUnits="userSpaceOnUse">
<stop stop-color="#00C6FF"/>
<stop offset="1" stop-color="#0072FF"/>
</linearGradient>
<linearGradient id="paint1_linear_95_216" x1="71.83" y1="29.5846" x2="71.83" y2="51.1699" gradientUnits="userSpaceOnUse">
<stop stop-color="#00C6FF"/>
<stop offset="1" stop-color="#0072FF"/>
</linearGradient>
<linearGradient id="paint2_linear_95_216" x1="68.5745" y1="45.1964" x2="78.5783" y2="45.1964" gradientUnits="userSpaceOnUse">
<stop stop-color="#00C6FF"/>
<stop offset="1" stop-color="#0072FF"/>
</linearGradient>
</defs>
</svg>
