<svg width="80" height="80" viewBox="0 0 80 80" fill="none" xmlns="http://www.w3.org/2000/svg">
<g id="person">
<path id="image 146 (Traced)" d="M25.4579 46.8468L25.4578 46.8468C23.6957 47.9815 21.8608 48.9418 19.9068 49.7526L19.9068 49.7526C18.82 50.2036 18.2375 50.495 17.834 50.7768C17.4741 51.0281 17.2101 51.3043 16.843 51.8255C16.6263 52.1332 16.2781 52.8547 15.9085 53.8646C15.5529 54.836 15.2228 55.948 15.0065 56.9505C14.5331 59.145 14.3541 63.1756 14.6307 65.6901L25.4579 46.8468ZM25.4579 46.8468C27.0071 45.849 29.4429 44.0716 30.7858 42.9604M25.4579 46.8468L30.7858 42.9604M49.2266 42.964C47.7079 44.4292 45.8764 45.5553 43.907 46.2238L43.9069 46.2239C43.4175 46.39 43.0221 46.5167 42.4101 46.5771C41.8836 46.629 41.1865 46.6323 40.0684 46.6348C38.1026 46.6393 37.3668 46.6177 36.5068 46.3548L49.2266 42.964ZM49.2266 42.964C52.6074 45.7822 56.891 48.4901 59.9204 49.6678C61.4373 50.2576 62.2085 50.7241 62.7514 51.313C63.3049 51.9132 63.7504 52.7797 64.3079 54.4553C65.1522 56.9928 65.4944 59.2184 65.4999 62.3713C65.502 63.5457 65.4622 64.5895 65.3926 65.4005C65.3577 65.8069 65.3166 66.1392 65.2732 66.392C65.2322 66.6308 65.1991 66.7375 65.193 66.7571C65.1921 66.7602 65.1918 66.7611 65.1922 66.7601C65.1328 66.8998 65.1001 66.949 65.0915 66.9606C65.0801 66.9692 65.0506 66.9882 64.9892 67.0162C64.6663 67.1636 64.0345 67.3194 62.5465 67.5874C62.5465 67.5874 62.5465 67.5875 62.5465 67.5875L62.8124 69.0637M49.2266 42.964L14.6307 65.6902L13.1397 65.8542C13.3868 68.0989 13.7395 68.418 16.5461 68.937C22.0234 69.9497 27.6993 70.6071 33.5853 70.9103C37.0783 71.0903 46.5956 70.9836 49.6045 70.7309C54.82 70.2927 58.7244 69.7999 62.8124 69.0637M62.8124 69.0637C65.6837 68.5465 66.1537 68.3319 66.5726 67.347L62.8124 69.0637ZM30.7858 42.9604C32.421 44.5243 34.4186 45.7167 36.5067 46.3548L30.7858 42.9604ZM37.6295 9.60622L37.6296 9.6062C38.0809 9.52536 38.9198 9.48111 40.3366 9.50789L40.3366 9.50789C42.7141 9.55279 43.7794 9.79958 45.4062 10.5944C47.3156 11.5274 48.664 12.8796 49.7619 15.0582C51.3255 18.1611 51.7569 22.3132 50.8334 26.8135C49.6238 32.708 46.6379 37.0201 43.3015 38.5482C42.7232 38.813 42.3064 38.9548 41.864 39.0401C41.4062 39.1283 40.86 39.1681 40.005 39.1681C39.15 39.1681 38.6038 39.1283 38.146 39.0401C37.7035 38.9548 37.2868 38.813 36.7084 38.5482C33.1115 36.9007 29.9467 32.0168 28.9285 25.5268L27.4466 25.7593L28.9285 25.5268C28.8025 24.7233 28.7318 23.4918 28.7317 22.2421C28.7315 20.9819 28.8034 19.8376 28.9215 19.1919C29.4497 16.3059 30.4725 14.1353 31.8929 12.5899C33.3019 11.0568 35.1893 10.0431 37.6295 9.60622ZM65.0899 66.9627C65.0899 66.9627 65.09 66.9626 65.0901 66.9626L65.0899 66.9627ZM65.0927 66.9598C65.0955 66.9568 65.0974 66.9554 65.0975 66.9555C65.0976 66.9556 65.0962 66.9571 65.0927 66.9598Z" stroke="url(#paint0_linear_456_6037)" stroke-width="3"/>
</g>
<defs>
<linearGradient id="paint0_linear_456_6037" x1="9.01231" y1="37.19" x2="69.8246" y2="37.19" gradientUnits="userSpaceOnUse">
<stop stop-color="#00C6FF"/>
<stop offset="1" stop-color="#0072FF"/>
</linearGradient>
</defs>
</svg>
