<svg width="80" height="80" viewBox="0 0 80 80" fill="none" xmlns="http://www.w3.org/2000/svg">
<circle cx="40" cy="40" r="33.5" stroke="url(#paint0_linear_467_5903)" stroke-width="3"/>
<path d="M38.4084 18.5674L38.4082 18.5675C36.772 18.8582 35.5352 19.5259 34.6184 20.5159C33.6908 21.5176 33.0009 22.9473 32.6409 24.9C32.5655 25.309 32.5148 26.0747 32.5149 26.9468C32.5149 27.8085 32.5644 28.6417 32.6478 29.1691C33.3516 33.6218 35.5243 36.8582 37.8649 37.9222C38.5408 38.2294 38.9095 38.3158 40.0035 38.3158C41.0975 38.3158 41.4662 38.2294 42.1421 37.9222M38.4084 18.5674L43.6132 19.2204C44.8619 19.8259 45.7427 20.6957 46.4746 22.1372C47.5175 24.1911 47.8226 26.9801 47.1886 30.0464C46.3537 34.0846 44.3111 36.9362 42.1421 37.9222M38.4084 18.5674C38.6802 18.5191 39.2332 18.4868 40.2287 18.5054L40.2287 18.5054M38.4084 18.5674L40.2287 18.5054M42.1421 37.9222L42.7628 39.2877M42.1421 37.9222L42.7628 39.2877M42.7628 39.2877C45.5368 38.0268 47.7706 34.64 48.6575 30.3502C49.3431 27.0343 49.0435 23.8834 47.8121 21.4581L31.1657 24.628C30.9644 25.7198 30.9646 28.1282 31.1662 29.4033C31.9103 34.1112 34.259 37.9308 37.2442 39.2877C38.1576 39.7029 38.7477 39.8158 40.0035 39.8158C41.2593 39.8158 41.8494 39.7029 42.7628 39.2877ZM33.4977 42.0085C32.5073 42.7937 30.9998 43.8771 30.003 44.5142L30.0029 44.5142C28.7404 45.321 27.4259 46.0038 26.027 46.5799L26.027 46.5799C25.2648 46.8938 24.8934 47.0824 24.6518 47.2498C24.4542 47.3868 24.3035 47.5365 24.0646 47.8732C23.9489 48.0362 23.7207 48.4921 23.4628 49.1914C23.2191 49.8521 22.9931 50.6083 22.846 51.2854C22.5244 52.7645 22.3995 55.5291 22.5892 57.2408L33.4977 42.0085ZM33.4977 42.0085C34.6402 43.0183 35.9967 43.7909 37.4149 44.221C38.0942 44.4271 38.6804 44.4385 40.0491 44.4354H40.0492C40.8265 44.4337 41.3422 44.4318 41.7385 44.393C42.2198 44.3459 42.536 44.2444 42.8889 44.1255L42.889 44.1255C44.215 43.6787 45.4544 42.9528 46.5103 42.0137C48.8631 43.9131 51.7599 45.7138 53.8606 46.5244C54.9098 46.9292 55.3756 47.2256 55.6874 47.5611C56.0088 47.907 56.2975 48.4352 56.685 49.591C57.2612 51.3101 57.4961 52.8146 57.4999 54.9744C57.5014 55.7849 57.4736 56.5 57.4261 57.0496C57.4023 57.3252 57.3748 57.5436 57.3471 57.7033C57.3366 57.7641 57.3275 57.8078 57.3209 57.8369C57.2441 57.8638 57.1222 57.9001 56.9325 57.9449C56.6554 58.0104 56.2902 58.0815 55.7892 58.1711C55.7892 58.1711 55.7892 58.1711 55.7892 58.1711L56.0531 59.6477M33.4977 42.0085L22.5892 57.2409L21.0983 57.4061C21.2722 58.9739 21.5204 59.1967 23.4954 59.5592C27.3498 60.2665 31.344 60.7256 35.4859 60.9373C37.944 61.0631 44.6414 60.9886 46.7587 60.812C50.4289 60.506 53.1764 60.1618 56.0531 59.6477M56.0531 59.6477C58.0737 59.2865 58.4045 59.1365 58.6993 58.4487M56.0531 59.6477L58.6993 58.4487M58.6993 58.4487C58.8854 58.0143 59.0029 56.6558 58.9999 54.9718C58.9959 52.6746 58.7417 51.0072 58.1072 49.1142C57.3012 46.7102 56.6262 45.9838 54.4006 45.1249L58.6993 58.4487ZM58.6993 58.4487L57.3372 57.865L57.3101 57.8818C57.2955 57.9142 57.288 57.9271 57.2881 57.9272C57.2881 57.9272 57.3009 57.9053 57.3271 57.876C57.3305 57.8722 57.3338 57.8685 57.3372 57.865L58.6993 58.4487ZM40.2287 18.5054C41.8529 18.5359 42.5375 18.6987 43.6132 19.2204L40.2287 18.5054ZM40.2568 17.0058L40.2568 17.0057L40.2568 17.0058Z" stroke="url(#paint1_linear_467_5903)" stroke-width="3"/>
<defs>
<linearGradient id="paint0_linear_467_5903" x1="-0.16923" y1="37.4333" x2="78.6615" y2="37.4333" gradientUnits="userSpaceOnUse">
<stop stop-color="#00C6FF"/>
<stop offset="1" stop-color="#0072FF"/>
</linearGradient>
<linearGradient id="paint1_linear_467_5903" x1="18.1938" y1="37.3867" x2="60.9877" y2="37.3867" gradientUnits="userSpaceOnUse">
<stop stop-color="#00C6FF"/>
<stop offset="1" stop-color="#0072FF"/>
</linearGradient>
</defs>
</svg>
