<svg width="80" height="80" viewBox="0 0 80 80" fill="none" xmlns="http://www.w3.org/2000/svg">
<circle cx="40" cy="40" r="35.5" stroke="url(#paint0_linear_344_4171)" stroke-width="3"/>
<path d="M30.1 56V25.4678H42.6618C45.3661 25.4678 47.6778 25.904 49.597 26.7763C51.5453 27.6487 53.0428 28.8991 54.0896 30.5274C55.1364 32.1558 55.6598 34.0895 55.6598 36.3286C55.6598 38.5676 55.1364 40.5013 54.0896 42.1297C53.0428 43.7581 51.5453 45.0084 49.597 45.8808C47.6778 46.7531 45.3661 47.1893 42.6618 47.1893H33.2405L35.7703 44.5286V56H30.1ZM35.7703 45.1393L33.2405 42.3914H42.4001C44.9009 42.3914 46.7764 41.868 48.0268 40.8211C49.3062 39.7453 49.9459 38.2477 49.9459 36.3286C49.9459 34.3803 49.3062 32.8828 48.0268 31.836C46.7764 30.7891 44.9009 30.2657 42.4001 30.2657H33.2405L35.7703 27.4742V45.1393Z" fill="url(#paint1_linear_344_4171)"/>
<rect x="44.5" y="54.5" width="33" height="22" rx="11" fill="white" stroke="url(#paint2_linear_344_4171)" stroke-width="3"/>
<path d="M54.0111 70V62.7468H56.2087L58.9454 67.7081H58.0691L60.9947 62.7468H62.963L62.99 70H61.089V64.9039L61.4126 65.1196L58.9185 69.2989H58.0287L55.5211 64.9713L55.9121 64.8769V70H54.0111ZM64.5462 65.5915V64.6882L66.8785 62.6659C67.1481 62.4323 67.3234 62.2435 67.4043 62.0997C67.4942 61.9559 67.5391 61.8211 67.5391 61.6952C67.5391 61.5155 67.4582 61.3672 67.2964 61.2504C67.1436 61.1245 66.901 61.0616 66.5684 61.0616C66.2898 61.0616 66.0426 61.111 65.8269 61.2099C65.6112 61.3088 65.4404 61.4526 65.3146 61.6413L64.2361 60.9942C64.4608 60.6616 64.7754 60.3965 65.1798 60.1988C65.5932 59.9921 66.0966 59.8887 66.6898 59.8887C67.4268 59.8887 68.002 60.046 68.4154 60.3606C68.8289 60.6751 69.0356 61.0841 69.0356 61.5874C69.0356 61.857 68.9682 62.1222 68.8334 62.3828C68.6985 62.6345 68.4109 62.9491 67.9705 63.3265L66.0966 64.9578L65.7865 64.459H69.2513V65.5915H64.5462Z" fill="url(#paint3_linear_344_4171)"/>
<defs>
<linearGradient id="paint0_linear_344_4171" x1="-2.46461" y1="37.2867" x2="80.8708" y2="37.2867" gradientUnits="userSpaceOnUse">
<stop stop-color="#00C6FF"/>
<stop offset="1" stop-color="#0072FF"/>
</linearGradient>
<linearGradient id="paint1_linear_344_4171" x1="23.6369" y1="38.0933" x2="59.6738" y2="38.0933" gradientUnits="userSpaceOnUse">
<stop stop-color="#00C6FF"/>
<stop offset="1" stop-color="#0072FF"/>
</linearGradient>
<linearGradient id="paint2_linear_344_4171" x1="40.3415" y1="64.5833" x2="80.8831" y2="64.5833" gradientUnits="userSpaceOnUse">
<stop stop-color="#00C6FF"/>
<stop offset="1" stop-color="#0072FF"/>
</linearGradient>
<linearGradient id="paint3_linear_344_4171" x1="51.7446" y1="64.4133" x2="70.8892" y2="64.4133" gradientUnits="userSpaceOnUse">
<stop stop-color="#00C6FF"/>
<stop offset="1" stop-color="#0072FF"/>
</linearGradient>
</defs>
</svg>
