<svg width="80" height="80" viewBox="0 0 80 80" fill="none" xmlns="http://www.w3.org/2000/svg">
<g id="renovation">
<path id="Union" fill-rule="evenodd" clip-rule="evenodd" d="M60.4614 4H11.1293C10.07 4 9.12178 4.6571 8.74983 5.64897C7.75006 8.31505 7.75006 11.2531 8.74983 13.9191C9.12178 14.911 10.07 15.5681 11.1293 15.5681H60.4614C61.6533 15.5681 62.7322 14.8625 63.2099 13.7706L63.5512 12.9906C64.4455 10.9464 64.4455 8.62167 63.5512 6.5775L63.2099 5.79754C62.7322 4.70558 61.6533 4 60.4614 4ZM11.1293 1C8.81945 1 6.75189 2.43282 5.94085 4.5956C4.68638 7.94083 4.68638 11.6273 5.94085 14.9725C6.5706 16.6518 7.95791 17.8911 9.62799 18.3612V38.8813C9.62799 41.2258 11.5285 43.1264 13.873 43.1264C16.2175 43.1264 18.118 41.2258 18.118 38.8813V29.2738C18.118 28.4346 18.7983 27.7543 19.6375 27.7543C20.4767 27.7543 21.1571 28.4346 21.1571 29.2738C21.1571 31.7698 23.1805 33.7933 25.6766 33.7933H26.2256C28.7216 33.7933 30.7451 31.7698 30.7451 29.2738C30.7451 28.4346 31.4254 27.7543 32.2646 27.7543H33.6371C36.8912 27.7543 39.5292 25.1163 39.5292 21.8622V18.5681H60.4614C62.8452 18.5681 65.0029 17.1569 65.9584 14.973L66.2996 14.1931L66.3115 14.1658C67.1342 14.1068 67.8852 13.7888 68.4835 13.2929C69.0432 12.8288 69.4692 12.2091 69.695 11.5H71.9991C73.9321 11.5 75.4991 13.067 75.4991 15V20.1946C75.4991 21.8832 74.2934 23.3311 72.6327 23.6368L38.8223 29.8606C35.7382 30.4283 33.4991 33.1172 33.4991 36.2532V46.3397C32.1432 46.9333 31.1959 48.287 31.1959 49.8618V52.6069H28.9991V55.6069V73.4591C28.9991 76.4967 31.4615 78.9591 34.4991 78.9591H35.5772C38.6147 78.9591 41.0772 76.4967 41.0772 73.4591V55.6069V52.6069H38.8819V49.8618C38.8819 48.2563 37.8974 46.8808 36.4991 46.306V36.2532C36.4991 34.5645 37.7047 33.1167 39.3654 32.811L73.1758 26.5872C76.26 26.0195 78.4991 23.3306 78.4991 20.1946V15C78.4991 11.4101 75.5889 8.5 71.9991 8.5H69.4111C69.1759 8.06724 68.8599 7.68472 68.4835 7.37265C67.9901 6.96368 67.3928 6.67569 66.7371 6.55419C66.6145 6.15519 66.4687 5.76147 66.2996 5.37505L65.9584 4.59509C65.0029 2.41116 62.8452 1 60.4614 1H11.1293ZM36.5292 18.5681H12.628V38.8813C12.628 39.5689 13.1854 40.1264 13.873 40.1264C14.5606 40.1264 15.118 39.5689 15.118 38.8813V29.2738C15.118 26.7777 17.1415 24.7543 19.6375 24.7543C22.1336 24.7543 24.1571 26.7777 24.1571 29.2738C24.1571 30.113 24.8374 30.7933 25.6766 30.7933H26.2256C27.0648 30.7933 27.7451 30.113 27.7451 29.2738C27.7451 26.7777 29.7686 24.7543 32.2646 24.7543H33.6371C35.2343 24.7543 36.5292 23.4595 36.5292 21.8622V18.5681ZM35.8819 49.8618V52.6069H34.1959V49.8618C34.1959 49.3963 34.5733 49.0188 35.0389 49.0188C35.5045 49.0188 35.8819 49.3963 35.8819 49.8618ZM34.1959 55.9009H31.9991V73.4591C31.9991 74.8398 33.1184 75.9591 34.4991 75.9591H35.5772C36.9579 75.9591 38.0772 74.8398 38.0772 73.4591V55.9009H35.8819H34.1959Z" fill="url(#paint0_linear_344_4170)"/>
</g>
<defs>
<linearGradient id="paint0_linear_344_4170" x1="-0.427624" y1="37.121" x2="82.3437" y2="37.121" gradientUnits="userSpaceOnUse">
<stop stop-color="#00C6FF"/>
<stop offset="1" stop-color="#0072FF"/>
</linearGradient>
</defs>
</svg>
