<svg width="80" height="80" viewBox="0 0 80 80" fill="none" xmlns="http://www.w3.org/2000/svg">
<path fill-rule="evenodd" clip-rule="evenodd" d="M55.8961 40.017C64.7874 40.017 71.9953 32.8092 71.9953 23.9178C71.9953 15.0265 64.7874 7.8186 55.8961 7.8186C47.0047 7.8186 39.7969 15.0265 39.7969 23.9178C39.7969 32.8092 47.0047 40.017 55.8961 40.017ZM55.8961 43.017C66.4443 43.017 74.9953 34.466 74.9953 23.9178C74.9953 13.3696 66.4443 4.8186 55.8961 4.8186C45.3479 4.8186 36.7969 13.3696 36.7969 23.9178C36.7969 34.466 45.3479 43.017 55.8961 43.017ZM50.1714 18.8503C50.7493 18.2568 51.699 18.2441 52.2925 18.822L55.8955 22.3302L59.4985 18.822C60.092 18.2441 61.0417 18.2568 61.6196 18.8503C62.1976 19.4438 62.1849 20.3935 61.5913 20.9714L58.0457 24.4238L61.584 27.869C62.1776 28.4469 62.1902 29.3966 61.6123 29.9902C61.0344 30.5837 60.0847 30.5964 59.4912 30.0184L55.8955 26.5174L52.2998 30.0184C51.7063 30.5964 50.7566 30.5837 50.1787 29.9902C49.6008 29.3966 49.6134 28.4469 50.207 27.869L53.7453 24.4238L50.1997 20.9714C49.6061 20.3935 49.5935 19.4438 50.1714 18.8503Z" fill="url(#paint0_linear_431_5551)"/>
<path d="M35.7869 70.661L10.6564 45.5304C1.62107 33.4675 7.29738 27.2709 9.64852 23.9182C14.5 17 18.1912 20.9028 22.2121 24.4215C25.7304 27.5003 31.8665 32.362 28.2477 35.9808C24.6289 39.5996 26.4048 43.8551 27.7451 45.5304C30.9283 49.7189 37.4144 58 42.3209 54.0748C46.3417 50.8581 50.0275 52.7345 51.3678 54.0748C55.7238 57.4255 63.9331 64.6296 59.9122 68.6505C51.0663 77.4965 40.322 75.1842 35.7869 70.661Z" stroke="url(#paint1_linear_431_5551)" stroke-width="3" stroke-linecap="round"/>
<defs>
<linearGradient id="paint0_linear_431_5551" x1="33.9761" y1="22.5172" x2="76.9934" y2="22.5172" gradientUnits="userSpaceOnUse">
<stop stop-color="#00C6FF"/>
<stop offset="1" stop-color="#0072FF"/>
</linearGradient>
<linearGradient id="paint1_linear_431_5551" x1="1.63717" y1="45.3803" x2="63.8812" y2="45.3803" gradientUnits="userSpaceOnUse">
<stop stop-color="#00C6FF"/>
<stop offset="1" stop-color="#0072FF"/>
</linearGradient>
</defs>
</svg>
