<svg width="80" height="80" viewBox="0 0 80 80" fill="none" xmlns="http://www.w3.org/2000/svg">
<path d="M14.0607 4.93934C13.4749 4.35355 12.5251 4.35355 11.9393 4.93934L2.3934 14.4853C1.80761 15.0711 1.80761 16.0208 2.3934 16.6066C2.97919 17.1924 3.92893 17.1924 4.51472 16.6066L13 8.12132L21.4853 16.6066C22.0711 17.1924 23.0208 17.1924 23.6066 16.6066C24.1924 16.0208 24.1924 15.0711 23.6066 14.4853L14.0607 4.93934ZM75.0607 68.0607C75.6465 67.4749 75.6465 66.5251 75.0607 65.9393L65.5147 56.3934C64.9289 55.8076 63.9792 55.8076 63.3934 56.3934C62.8076 56.9792 62.8076 57.9289 63.3934 58.5147L71.8787 67L63.3934 75.4853C62.8076 76.0711 62.8076 77.0208 63.3934 77.6066C63.9792 78.1924 64.9289 78.1924 65.5147 77.6066L75.0607 68.0607ZM11.5 6V59H14.5V6L11.5 6ZM21 68.5H74V65.5H21V68.5ZM11.5 59C11.5 64.2467 15.7533 68.5 21 68.5V65.5C17.4101 65.5 14.5 62.5899 14.5 59H11.5Z" fill="url(#paint0_linear_344_4172)"/>
<path d="M75 54V14C75 9.58172 71.4183 6 67 6H27" stroke="url(#paint1_linear_344_4172)" stroke-width="3" stroke-linecap="round"/>
<path d="M28.28 46V29.6448H33.2352L39.4064 40.832H37.4304L44.0272 29.6448H48.4656L48.5264 46H44.24V34.5088L44.9696 34.9952L39.3456 44.4192H37.3392L31.6848 34.6608L32.5664 34.448V46H28.28ZM52.0355 36.0592V34.0224L57.2947 29.4624C57.9027 28.9355 58.2979 28.5099 58.4803 28.1856C58.6829 27.8613 58.7843 27.5573 58.7843 27.2736C58.7843 26.8683 58.6019 26.5339 58.2371 26.2704C57.8925 25.9867 57.3453 25.8448 56.5955 25.8448C55.9672 25.8448 55.4099 25.9563 54.9235 26.1792C54.4371 26.4021 54.052 26.7264 53.7683 27.152L51.3363 25.6928C51.8429 24.9429 52.5523 24.3451 53.4643 23.8992C54.3965 23.4331 55.5315 23.2 56.8691 23.2C58.5309 23.2 59.828 23.5547 60.7603 24.264C61.6925 24.9733 62.1587 25.8955 62.1587 27.0304C62.1587 27.6384 62.0067 28.2363 61.7027 28.824C61.3987 29.3915 60.7501 30.1008 59.7571 30.952L55.5315 34.6304L54.8323 33.5056H62.6451V36.0592H52.0355Z" fill="url(#paint2_linear_344_4172)"/>
<defs>
<linearGradient id="paint0_linear_344_4172" x1="8.49539" y1="34.2633" x2="77.1908" y2="34.2633" gradientUnits="userSpaceOnUse">
<stop stop-color="#00C6FF"/>
<stop offset="1" stop-color="#0072FF"/>
</linearGradient>
<linearGradient id="paint1_linear_344_4172" x1="78.5446" y1="31.76" x2="24.4892" y2="31.76" gradientUnits="userSpaceOnUse">
<stop stop-color="#00C6FF"/>
<stop offset="1" stop-color="#0072FF"/>
</linearGradient>
<linearGradient id="paint2_linear_344_4172" x1="23.1938" y1="33.68" x2="65.9877" y2="33.68" gradientUnits="userSpaceOnUse">
<stop stop-color="#00C6FF"/>
<stop offset="1" stop-color="#0072FF"/>
</linearGradient>
</defs>
</svg>
