<svg width="80" height="80" viewBox="0 0 80 80" fill="none" xmlns="http://www.w3.org/2000/svg">
<g id="prohibition">
<path id="Union" fill-rule="evenodd" clip-rule="evenodd" d="M71 40.5C71 57.897 56.897 72 39.5 72C31.8295 72 24.7993 69.2583 19.336 64.7015L62.3511 18.8187C67.7113 24.4662 71 32.099 71 40.5ZM16.8082 66.4878C22.8738 71.7885 30.8119 75 39.5 75C58.5538 75 74 59.5538 74 40.5C74 21.4462 58.5538 6 39.5 6C20.4462 6 5 21.4462 5 40.5C5 50.2432 9.03886 59.043 15.5337 65.3167C15.5956 65.6047 15.7429 65.8775 15.9741 66.0943C16.2132 66.3184 16.5062 66.4491 16.8082 66.4878ZM17.1256 62.6729L60.1851 16.7428C54.6512 11.9204 47.4167 9 39.5 9C22.103 9 8 23.103 8 40.5C8 49.1472 11.4843 56.9806 17.1256 62.6729Z" fill="url(#paint0_linear_493_7280)"/>
</g>
<defs>
<linearGradient id="paint0_linear_493_7280" x1="-0.0953841" y1="37.97" x2="77.6092" y2="37.97" gradientUnits="userSpaceOnUse">
<stop stop-color="#00C6FF"/>
<stop offset="1" stop-color="#0072FF"/>
</linearGradient>
</defs>
</svg>
