<svg width="80" height="80" viewBox="0 0 80 80" fill="none" xmlns="http://www.w3.org/2000/svg">
<rect x="14.5" y="8.5" width="20" height="9" rx="1.5" stroke="url(#paint0_linear_212_1982)" stroke-width="3"/>
<mask id="path-2-inside-1_212_1982" fill="white">
<rect x="52" y="21" width="19" height="12" rx="2"/>
</mask>
<rect x="52" y="21" width="19" height="12" rx="2" stroke="url(#paint1_linear_212_1982)" stroke-width="6" mask="url(#path-2-inside-1_212_1982)"/>
<rect x="3.5" y="17.6001" width="42.24" height="51.6" rx="4.5" fill="white" stroke="url(#paint2_linear_212_1982)" stroke-width="3"/>
<rect x="44.5" y="31.5" width="33" height="39" rx="4.5" fill="white" stroke="url(#paint3_linear_212_1982)" stroke-width="3"/>
<rect x="15" y="23.8999" width="2" height="39" rx="1" fill="url(#paint4_linear_212_1982)"/>
<rect x="55.0391" y="36.3799" width="2" height="29.64" rx="1" fill="url(#paint5_linear_212_1982)"/>
<rect x="24" y="23.8999" width="2" height="39" rx="1" fill="url(#paint6_linear_212_1982)"/>
<rect x="64.3984" y="36.3799" width="2" height="29.64" rx="1" fill="url(#paint7_linear_212_1982)"/>
<rect x="33" y="23.8999" width="2" height="39" rx="1" fill="url(#paint8_linear_212_1982)"/>
<defs>
<linearGradient id="paint0_linear_212_1982" x1="11.3015" y1="12.56" x2="37.2031" y2="12.56" gradientUnits="userSpaceOnUse">
<stop stop-color="#00C6FF"/>
<stop offset="1" stop-color="#0072FF"/>
</linearGradient>
<linearGradient id="paint1_linear_212_1982" x1="50.5969" y1="26.56" x2="71.9938" y2="26.56" gradientUnits="userSpaceOnUse">
<stop stop-color="#00C6FF"/>
<stop offset="1" stop-color="#0072FF"/>
</linearGradient>
<linearGradient id="paint2_linear_212_1982" x1="-1.3408" y1="41.3981" x2="49.6064" y2="41.3981" gradientUnits="userSpaceOnUse">
<stop stop-color="#00C6FF"/>
<stop offset="1" stop-color="#0072FF"/>
</linearGradient>
<linearGradient id="paint3_linear_212_1982" x1="40.3415" y1="49.46" x2="80.8831" y2="49.46" gradientUnits="userSpaceOnUse">
<stop stop-color="#00C6FF"/>
<stop offset="1" stop-color="#0072FF"/>
</linearGradient>
<linearGradient id="paint4_linear_212_1982" x1="14.8523" y1="41.9699" x2="17.1046" y2="41.9699" gradientUnits="userSpaceOnUse">
<stop stop-color="#00C6FF"/>
<stop offset="1" stop-color="#0072FF"/>
</linearGradient>
<linearGradient id="paint5_linear_212_1982" x1="54.8914" y1="50.1131" x2="57.1437" y2="50.1131" gradientUnits="userSpaceOnUse">
<stop stop-color="#00C6FF"/>
<stop offset="1" stop-color="#0072FF"/>
</linearGradient>
<linearGradient id="paint6_linear_212_1982" x1="23.8523" y1="41.9699" x2="26.1046" y2="41.9699" gradientUnits="userSpaceOnUse">
<stop stop-color="#00C6FF"/>
<stop offset="1" stop-color="#0072FF"/>
</linearGradient>
<linearGradient id="paint7_linear_212_1982" x1="64.2507" y1="50.1131" x2="66.5031" y2="50.1131" gradientUnits="userSpaceOnUse">
<stop stop-color="#00C6FF"/>
<stop offset="1" stop-color="#0072FF"/>
</linearGradient>
<linearGradient id="paint8_linear_212_1982" x1="32.8523" y1="41.9699" x2="35.1046" y2="41.9699" gradientUnits="userSpaceOnUse">
<stop stop-color="#00C6FF"/>
<stop offset="1" stop-color="#0072FF"/>
</linearGradient>
</defs>
</svg>
