<svg width="80" height="80" viewBox="0 0 80 80" fill="none" xmlns="http://www.w3.org/2000/svg">
<path d="M55 9.5C57.4853 9.5 59.5 11.5147 59.5 14L59.5 19.5L20.5 19.5L20.5 14C20.5 11.5147 22.5147 9.5 25 9.5L55 9.5Z" stroke="url(#paint0_linear_175_2400)" stroke-width="3"/>
<rect x="8.97656" y="34.7295" width="63.0448" height="34.623" rx="2.5" stroke="url(#paint1_linear_175_2400)" stroke-width="3"/>
<path d="M4.5 22C4.5 20.6193 5.61929 19.5 7 19.5H74C75.3807 19.5 76.5 20.6193 76.5 22V43.6195C76.5 44.8461 75.6101 45.8915 74.3992 46.0874L41.4495 51.4174C41.1889 51.4596 40.9233 51.4602 40.6625 51.4193L6.61223 46.0732C5.39613 45.8822 4.5 44.8344 4.5 43.6034V22Z" fill="white" stroke="url(#paint2_linear_175_2400)" stroke-width="3"/>
<rect x="34.5" y="36.8193" width="12.6716" height="19.9918" rx="4.5" fill="white" stroke="url(#paint3_linear_175_2400)" stroke-width="3"/>
<defs>
<linearGradient id="paint0_linear_175_2400" x1="41.54" y1="7.04" x2="41.54" y2="21.68" gradientUnits="userSpaceOnUse">
<stop stop-color="#00C6FF"/>
<stop offset="1" stop-color="#0072FF"/>
</linearGradient>
<linearGradient id="paint1_linear_175_2400" x1="2.59941" y1="50.6615" x2="76.976" y2="50.6615" gradientUnits="userSpaceOnUse">
<stop stop-color="#00C6FF"/>
<stop offset="1" stop-color="#0072FF"/>
</linearGradient>
<linearGradient id="paint2_linear_175_2400" x1="-2.53846" y1="34.2167" x2="81.9231" y2="34.2167" gradientUnits="userSpaceOnUse">
<stop stop-color="#00C6FF"/>
<stop offset="1" stop-color="#0072FF"/>
</linearGradient>
<linearGradient id="paint3_linear_175_2400" x1="31.8427" y1="45.9722" x2="49.4914" y2="45.9722" gradientUnits="userSpaceOnUse">
<stop stop-color="#00C6FF"/>
<stop offset="1" stop-color="#0072FF"/>
</linearGradient>
</defs>
</svg>
