<svg width="80" height="80" viewBox="0 0 80 80" fill="none" xmlns="http://www.w3.org/2000/svg">
<g clip-path="url(#clip0_375_5471)">
<path d="M41.123 41.8271C41.2652 41.756 41.4326 41.7568 41.5742 41.8291L75.8363 59.3382C76.1994 59.5238 76.1997 60.0425 75.8368 60.2284L41.4749 77.8327C41.3334 77.9052 41.1659 77.9061 41.0237 77.8351L5.92037 60.3252C5.55147 60.1412 5.55122 59.615 5.91991 59.4306L41.123 41.8271Z" fill="white" stroke="url(#paint0_linear_375_5471)" stroke-width="3"/>
<path d="M41.123 22.8901C41.2652 22.819 41.4326 22.8197 41.5742 22.8921L75.8363 40.4012C76.1994 40.5867 76.1997 41.1055 75.8368 41.2914L41.4749 58.8957C41.3334 58.9682 41.1659 58.9691 41.0237 58.8981L5.92037 41.3882C5.55147 41.2042 5.55122 40.6779 5.91991 40.4936L41.123 22.8901Z" fill="white" stroke="url(#paint1_linear_375_5471)" stroke-width="3"/>
<path d="M17.5156 46.5347L52.8858 27.5503" stroke="url(#paint2_linear_375_5471)" stroke-width="3"/>
<path d="M29.5391 52.5462L63.642 33.5757" stroke="url(#paint3_linear_375_5471)" stroke-width="3"/>
<path d="M41.123 2.66157C41.2652 2.59049 41.4326 2.59122 41.5742 2.66355L75.8363 20.1727C76.1994 20.3582 76.1997 20.877 75.8368 21.0629L41.4749 38.6672C41.3334 38.7396 41.1659 38.7405 41.0237 38.6696L5.92037 21.1597C5.55147 20.9757 5.55122 20.4494 5.91991 20.2651L41.123 2.66157Z" fill="white" stroke="url(#paint4_linear_375_5471)" stroke-width="3"/>
</g>
<defs>
<linearGradient id="paint0_linear_375_5471" x1="19.8244" y1="35.9458" x2="63.8757" y2="79.9971" gradientUnits="userSpaceOnUse">
<stop stop-color="#00C6FF"/>
<stop offset="1" stop-color="#0072FF"/>
</linearGradient>
<linearGradient id="paint1_linear_375_5471" x1="19.8244" y1="17.0088" x2="63.8757" y2="61.0601" gradientUnits="userSpaceOnUse">
<stop stop-color="#00C6FF"/>
<stop offset="1" stop-color="#0072FF"/>
</linearGradient>
<linearGradient id="paint2_linear_375_5471" x1="14.9037" y1="36.3464" x2="54.7359" y2="36.3464" gradientUnits="userSpaceOnUse">
<stop stop-color="#00C6FF"/>
<stop offset="1" stop-color="#0072FF"/>
</linearGradient>
<linearGradient id="paint3_linear_375_5471" x1="27.0207" y1="42.3654" x2="65.4259" y2="42.3654" gradientUnits="userSpaceOnUse">
<stop stop-color="#00C6FF"/>
<stop offset="1" stop-color="#0072FF"/>
</linearGradient>
<linearGradient id="paint4_linear_375_5471" x1="19.8244" y1="-3.21976" x2="63.8757" y2="40.8316" gradientUnits="userSpaceOnUse">
<stop stop-color="#00C6FF"/>
<stop offset="1" stop-color="#0072FF"/>
</linearGradient>
<clipPath id="clip0_375_5471">
<rect width="80" height="80" fill="white"/>
</clipPath>
</defs>
</svg>
