<svg width="40" height="40" viewBox="0 0 40 40" fill="none" xmlns="http://www.w3.org/2000/svg">
<path fill-rule="evenodd" clip-rule="evenodd" d="M15.334 14.2417C14.1982 15.459 13.967 17.0896 14.6971 18.7337C15.1692 19.7964 16.6979 21.7633 18.0092 22.9955C20.6039 25.4331 24.0919 26.5406 25.9326 25.5114C26.9158 24.9615 27.3054 24.3762 27.3182 23.4296L27.3288 22.6496L26.0433 22.0208C24.095 21.068 24.1083 21.068 23.3467 22.0341C22.9859 22.4915 22.5523 22.8688 22.3828 22.8724C21.4084 22.8935 18.6125 20.6346 17.8959 19.2474C17.6605 18.7919 17.6748 18.7421 18.2499 18.0033C18.8261 17.2627 18.841 17.21 18.6421 16.6155C18.5283 16.2758 18.2002 15.5127 17.913 14.9199L17.3905 13.8421L16.5962 13.7912C15.8932 13.7463 15.7479 13.7982 15.334 14.2417Z" fill="#48C95F"/>
<path d="M13.3209 31.9654L7.09888 33.4012L9.01333 27.6579" stroke="#48C95F" stroke-width="2"/>
<path fill-rule="evenodd" clip-rule="evenodd" d="M33.3372 20C33.3372 27.0897 27.5898 32.837 20.5001 32.837C17.9794 32.837 15.6284 32.1105 13.645 30.8554L11.0571 31.4446C13.6226 33.5638 16.9127 34.837 20.5001 34.837C28.6944 34.837 35.3372 28.1943 35.3372 20C35.3372 11.8057 28.6944 5.16296 20.5001 5.16296C12.3059 5.16296 5.66309 11.8057 5.66309 20C5.66309 23.7609 7.06237 27.1949 9.36872 29.8099L10.1251 27.5612C8.57684 25.4404 7.66309 22.8269 7.66309 20C7.66309 12.9103 13.4104 7.16296 20.5001 7.16296C27.5898 7.16296 33.3372 12.9103 33.3372 20Z" fill="#48C95F"/>
</svg>
