<svg width="80" height="80" viewBox="0 0 80 80" fill="none" xmlns="http://www.w3.org/2000/svg">
<circle cx="40.5" cy="40.5" r="33" stroke="url(#paint0_linear_493_7279)" stroke-width="3"/>
<path d="M39.5545 53.35C37.8278 53.35 36.1361 53.105 34.4795 52.615C32.8461 52.1017 31.4695 51.4017 30.3495 50.515L32.3095 46.98C33.1961 47.7033 34.2695 48.2867 35.5295 48.73C36.7895 49.1733 38.1078 49.395 39.4845 49.395C41.1178 49.395 42.3895 49.0683 43.2995 48.415C44.2095 47.7383 44.6645 46.8283 44.6645 45.685C44.6645 44.565 44.2445 43.6783 43.4045 43.025C42.5645 42.3717 41.2111 42.045 39.3445 42.045H37.1045V38.93L44.1045 30.6L44.6995 32.315H31.5395V28.5H48.2345V31.545L41.2345 39.875L38.8545 38.475H40.2195C43.2295 38.475 45.4811 39.1517 46.9745 40.505C48.4911 41.835 49.2495 43.55 49.2495 45.65C49.2495 47.0267 48.8995 48.2983 48.1995 49.465C47.4995 50.6317 46.4261 51.5767 44.9795 52.3C43.5561 53 41.7478 53.35 39.5545 53.35Z" fill="url(#paint1_linear_493_7279)"/>
<defs>
<linearGradient id="paint0_linear_493_7279" x1="0.904616" y1="37.97" x2="78.6092" y2="37.97" gradientUnits="userSpaceOnUse">
<stop stop-color="#00C6FF"/>
<stop offset="1" stop-color="#0072FF"/>
</linearGradient>
<linearGradient id="paint1_linear_493_7279" x1="28.4492" y1="38.3867" x2="52.0985" y2="38.3867" gradientUnits="userSpaceOnUse">
<stop stop-color="#00C6FF"/>
<stop offset="1" stop-color="#0072FF"/>
</linearGradient>
</defs>
</svg>
