<svg width="80" height="80" viewBox="0 0 80 80" fill="none" xmlns="http://www.w3.org/2000/svg">
<rect x="6.5" y="6.5" width="66" height="66" rx="18.5" stroke="url(#paint0_linear_518_12020)" stroke-width="3"/>
<path d="M20.4357 51.072C19.9197 51.072 19.4607 50.964 19.0587 50.748C18.6627 50.532 18.3477 50.238 18.1137 49.866C17.8857 49.488 17.7717 49.059 17.7717 48.579C17.7717 48.093 17.8857 47.664 18.1137 47.292C18.3477 46.914 18.6627 46.62 19.0587 46.41C19.4607 46.194 19.9197 46.086 20.4357 46.086C20.9457 46.086 21.4017 46.194 21.8037 46.41C22.2057 46.62 22.5207 46.911 22.7487 47.283C22.9767 47.655 23.0907 48.087 23.0907 48.579C23.0907 49.059 22.9767 49.488 22.7487 49.866C22.5207 50.238 22.2057 50.532 21.8037 50.748C21.4017 50.964 20.9457 51.072 20.4357 51.072ZM20.4357 49.92C20.6697 49.92 20.8797 49.866 21.0657 49.758C21.2517 49.65 21.3987 49.497 21.5067 49.299C21.6147 49.095 21.6687 48.855 21.6687 48.579C21.6687 48.297 21.6147 48.057 21.5067 47.859C21.3987 47.661 21.2517 47.508 21.0657 47.4C20.8797 47.292 20.6697 47.238 20.4357 47.238C20.2017 47.238 19.9917 47.292 19.8057 47.4C19.6197 47.508 19.4697 47.661 19.3557 47.859C19.2477 48.057 19.1937 48.297 19.1937 48.579C19.1937 48.855 19.2477 49.095 19.3557 49.299C19.4697 49.497 19.6197 49.65 19.8057 49.758C19.9917 49.866 20.2017 49.92 20.4357 49.92ZM24.9156 51V46.986L25.2306 47.31H23.2776V46.158H27.9486V47.31H25.9956L26.3106 46.986V51H24.9156ZM31.579 45.84V43.74L42.319 30H45.559L34.909 43.74L33.379 43.26H50.149V45.84H31.579ZM43.249 51V45.84L43.339 43.26V38.7H46.159V51H43.249Z" fill="url(#paint1_linear_518_12020)"/>
<path d="M49.3392 40L56.5092 29.5H57.6642L50.4942 40H49.3392ZM50.1792 35.14C49.6992 35.14 49.2742 35.02 48.9042 34.78C48.5342 34.54 48.2442 34.205 48.0342 33.775C47.8342 33.345 47.7342 32.845 47.7342 32.275C47.7342 31.705 47.8342 31.205 48.0342 30.775C48.2442 30.345 48.5342 30.01 48.9042 29.77C49.2742 29.53 49.6992 29.41 50.1792 29.41C50.6692 29.41 51.0942 29.53 51.4542 29.77C51.8242 30.01 52.1092 30.345 52.3092 30.775C52.5092 31.205 52.6092 31.705 52.6092 32.275C52.6092 32.845 52.5092 33.345 52.3092 33.775C52.1092 34.205 51.8242 34.54 51.4542 34.78C51.0942 35.02 50.6692 35.14 50.1792 35.14ZM50.1792 34.285C50.6392 34.285 50.9992 34.11 51.2592 33.76C51.5192 33.4 51.6492 32.905 51.6492 32.275C51.6492 31.645 51.5192 31.155 51.2592 30.805C50.9992 30.445 50.6392 30.265 50.1792 30.265C49.7292 30.265 49.3692 30.445 49.0992 30.805C48.8392 31.155 48.7092 31.645 48.7092 32.275C48.7092 32.895 48.8392 33.385 49.0992 33.745C49.3692 34.105 49.7292 34.285 50.1792 34.285ZM56.8242 40.09C56.3442 40.09 55.9192 39.97 55.5492 39.73C55.1792 39.49 54.8942 39.155 54.6942 38.725C54.4942 38.295 54.3942 37.795 54.3942 37.225C54.3942 36.655 54.4942 36.155 54.6942 35.725C54.8942 35.295 55.1792 34.96 55.5492 34.72C55.9192 34.48 56.3442 34.36 56.8242 34.36C57.3142 34.36 57.7392 34.48 58.0992 34.72C58.4692 34.96 58.7542 35.295 58.9542 35.725C59.1642 36.155 59.2692 36.655 59.2692 37.225C59.2692 37.795 59.1642 38.295 58.9542 38.725C58.7542 39.155 58.4692 39.49 58.0992 39.73C57.7392 39.97 57.3142 40.09 56.8242 40.09ZM56.8242 39.235C57.2742 39.235 57.6292 39.06 57.8892 38.71C58.1592 38.35 58.2942 37.855 58.2942 37.225C58.2942 36.605 58.1592 36.115 57.8892 35.755C57.6292 35.395 57.2742 35.215 56.8242 35.215C56.3742 35.215 56.0142 35.395 55.7442 35.755C55.4842 36.105 55.3542 36.595 55.3542 37.225C55.3542 37.855 55.4842 38.35 55.7442 38.71C56.0142 39.06 56.3742 39.235 56.8242 39.235Z" fill="url(#paint2_linear_518_12020)"/>
<defs>
<linearGradient id="paint0_linear_518_12020" x1="-0.0953841" y1="36.97" x2="77.6092" y2="36.97" gradientUnits="userSpaceOnUse">
<stop stop-color="#00C6FF"/>
<stop offset="1" stop-color="#0072FF"/>
</linearGradient>
<linearGradient id="paint1_linear_518_12020" x1="14.4892" y1="38.85" x2="52.7785" y2="38.85" gradientUnits="userSpaceOnUse">
<stop stop-color="#00C6FF"/>
<stop offset="1" stop-color="#0072FF"/>
</linearGradient>
<linearGradient id="paint2_linear_518_12020" x1="46.04" y1="33.6567" x2="60.68" y2="33.6567" gradientUnits="userSpaceOnUse">
<stop stop-color="#00C6FF"/>
<stop offset="1" stop-color="#0072FF"/>
</linearGradient>
</defs>
</svg>
