<svg width="80" height="80" viewBox="0 0 80 80" fill="none" xmlns="http://www.w3.org/2000/svg">
<rect x="9.5" y="5.5" width="63" height="70" rx="4.5" stroke="url(#paint0_linear_431_5583)" stroke-width="3"/>
<path fill-rule="evenodd" clip-rule="evenodd" d="M14 7H44V25C44 25.4819 43.8864 25.9373 43.6844 26.3409L36.5211 12.2784C35.5471 10.3663 32.7752 10.4891 31.9742 12.4799L26.5822 25.8801L22.3024 19.7987C21.3067 18.3838 19.2093 18.3838 18.2135 19.7987L12.4418 28H11V10C11 8.34315 12.3431 7 14 7ZM16.1102 28H24.4057L20.258 22.1063L16.1102 28ZM28.9577 28H41C41.0539 28 41.1074 27.9986 41.1606 27.9958L34.347 14.6196L29.022 27.8533C29.0019 27.9033 28.9804 27.9522 28.9577 28ZM8 10C8 6.68629 10.6863 4 14 4H44H47V7V25C47 28.3137 44.3137 31 41 31H11H8V28V10Z" fill="url(#paint1_linear_431_5583)"/>
<path d="M53 13H65" stroke="url(#paint2_linear_431_5583)" stroke-width="3" stroke-linecap="round"/>
<path d="M53 20H65" stroke="url(#paint3_linear_431_5583)" stroke-width="3" stroke-linecap="round"/>
<path d="M19 39H51" stroke="url(#paint4_linear_431_5583)" stroke-width="3" stroke-linecap="round"/>
<path d="M19 48H64" stroke="url(#paint5_linear_431_5583)" stroke-width="3" stroke-linecap="round"/>
<path d="M19 65H64" stroke="url(#paint6_linear_431_5583)" stroke-width="3" stroke-linecap="round"/>
<path d="M19 57H57" stroke="url(#paint7_linear_431_5583)" stroke-width="3" stroke-linecap="round"/>
<defs>
<linearGradient id="paint0_linear_431_5583" x1="3.12615" y1="37.8233" x2="77.4523" y2="37.8233" gradientUnits="userSpaceOnUse">
<stop stop-color="#00C6FF"/>
<stop offset="1" stop-color="#0072FF"/>
</linearGradient>
<linearGradient id="paint1_linear_431_5583" x1="5.12" y1="16.51" x2="49.04" y2="16.51" gradientUnits="userSpaceOnUse">
<stop stop-color="#00C6FF"/>
<stop offset="1" stop-color="#0072FF"/>
</linearGradient>
<linearGradient id="paint2_linear_431_5583" x1="52.1138" y1="13.4633" x2="65.6277" y2="13.4633" gradientUnits="userSpaceOnUse">
<stop stop-color="#00C6FF"/>
<stop offset="1" stop-color="#0072FF"/>
</linearGradient>
<linearGradient id="paint3_linear_431_5583" x1="52.1138" y1="20.4633" x2="65.6277" y2="20.4633" gradientUnits="userSpaceOnUse">
<stop stop-color="#00C6FF"/>
<stop offset="1" stop-color="#0072FF"/>
</linearGradient>
<linearGradient id="paint4_linear_431_5583" x1="16.6369" y1="39.4633" x2="52.6738" y2="39.4633" gradientUnits="userSpaceOnUse">
<stop stop-color="#00C6FF"/>
<stop offset="1" stop-color="#0072FF"/>
</linearGradient>
<linearGradient id="paint5_linear_431_5583" x1="15.6769" y1="48.4633" x2="66.3538" y2="48.4634" gradientUnits="userSpaceOnUse">
<stop stop-color="#00C6FF"/>
<stop offset="1" stop-color="#0072FF"/>
</linearGradient>
<linearGradient id="paint6_linear_431_5583" x1="15.6769" y1="65.4633" x2="66.3538" y2="65.4634" gradientUnits="userSpaceOnUse">
<stop stop-color="#00C6FF"/>
<stop offset="1" stop-color="#0072FF"/>
</linearGradient>
<linearGradient id="paint7_linear_431_5583" x1="16.1938" y1="57.4633" x2="58.9877" y2="57.4634" gradientUnits="userSpaceOnUse">
<stop stop-color="#00C6FF"/>
<stop offset="1" stop-color="#0072FF"/>
</linearGradient>
</defs>
</svg>
