<svg width="80" height="80" viewBox="0 0 80 80" fill="none" xmlns="http://www.w3.org/2000/svg">
<g id="damage">
<path id="Vector 571" d="M37.8039 6.16625L34.1937 24.1313C34.0457 24.8678 33.1687 25.1842 32.5845 24.7118L26.7555 19.9983C26.085 19.456 25.0884 19.96 25.1278 20.8215L25.506 29.1031C25.5397 29.841 24.7893 30.3595 24.111 30.0669L12.8049 25.1909C11.8409 24.7752 10.9693 25.936 11.6376 26.7457L20.5818 37.5825C21.0776 38.1831 20.7268 39.0949 19.9563 39.2083L5.48452 41.3396C4.4247 41.4957 4.31902 42.9834 5.34614 43.2877L20.8221 47.873C21.5071 48.076 21.7644 48.9109 21.3127 49.4642L16.7332 55.0736C16.1529 55.7845 16.7565 56.8364 17.6631 56.6939L23.7814 55.7325C24.5605 55.61 25.1681 56.3955 24.8538 57.1189L18.5675 71.5868C18.1394 72.5721 19.3542 73.4472 20.1532 72.729L32.7118 61.4398C33.2531 60.9532 34.1163 61.1894 34.3344 61.8839L38.3337 74.6208C38.636 75.5835 40.0118 75.5435 40.2576 74.5649L43.4465 61.8701C43.6214 61.174 44.4509 60.8833 45.022 61.318L58.8801 71.8649C59.7384 72.5181 60.8801 71.5372 60.3636 70.5903L53.067 57.2131C52.6716 56.4884 53.2752 55.6238 54.0918 55.7451L70.5916 58.1965C71.6912 58.3598 72.1967 56.8762 71.2261 56.3342L56.5232 48.124C55.8212 47.732 55.8454 46.7139 56.5652 46.3556L62.0935 43.6047C62.797 43.2546 62.8404 42.2671 62.1702 41.8566L57.5972 39.0559C57.0492 38.7202 56.9555 37.9621 57.4053 37.5031L73.5688 21.0111C74.3506 20.2134 73.435 18.9289 72.4259 19.4077L53.997 28.1524C53.2373 28.5128 52.399 27.8319 52.5961 27.0145L54.6944 18.3132C54.922 17.3694 53.8067 16.6876 53.0705 17.3204L44.5914 24.6083C44.0044 25.1129 43.0913 24.7878 42.9552 24.0258L39.7687 6.18743C39.5746 5.10053 38.0214 5.08379 37.8039 6.16625Z" stroke="url(#paint0_linear_493_7250)" stroke-width="3" stroke-linecap="round"/>
</g>
<defs>
<linearGradient id="paint0_linear_493_7250" x1="-4.64923" y1="36.6767" x2="81.5015" y2="36.6767" gradientUnits="userSpaceOnUse">
<stop stop-color="#00C6FF"/>
<stop offset="1" stop-color="#0072FF"/>
</linearGradient>
</defs>
</svg>
