<svg width="80" height="80" viewBox="0 0 80 80" fill="none" xmlns="http://www.w3.org/2000/svg">
<mask id="path-1-inside-1_518_12036" fill="white">
<path fill-rule="evenodd" clip-rule="evenodd" d="M38.261 75.8647C56.8085 75.8647 71.8442 60.829 71.8442 42.2815C71.8442 23.734 56.8085 8.69824 38.261 8.69824C19.7135 8.69824 4.67773 23.734 4.67773 42.2815C4.67773 50.6287 7.72308 58.2646 12.7633 64.1388L41.2385 35.6637L43.92 38.3452L15.3909 66.8742C21.3868 72.4526 29.4254 75.8647 38.261 75.8647Z"/>
</mask>
<path d="M12.7633 64.1388L10.4866 66.0924L12.5951 68.5498L14.8846 66.2602L12.7633 64.1388ZM41.2385 35.6637L43.3598 33.5424L41.2385 31.421L39.1172 33.5424L41.2385 35.6637ZM43.92 38.3452L46.0413 40.4665L48.1626 38.3452L46.0413 36.2239L43.92 38.3452ZM15.3909 66.8742L13.2696 64.7529L11.0704 66.9521L13.3474 69.0706L15.3909 66.8742ZM68.8442 42.2815C68.8442 59.1721 55.1516 72.8647 38.261 72.8647V78.8647C58.4653 78.8647 74.8442 62.4858 74.8442 42.2815H68.8442ZM38.261 11.6982C55.1516 11.6982 68.8442 25.3908 68.8442 42.2815H74.8442C74.8442 22.0771 58.4653 5.69824 38.261 5.69824V11.6982ZM7.67773 42.2815C7.67773 25.3908 21.3703 11.6982 38.261 11.6982V5.69824C18.0566 5.69824 1.67773 22.0771 1.67773 42.2815H7.67773ZM15.0401 62.1853C10.4488 56.8344 7.67773 49.8853 7.67773 42.2815H1.67773C1.67773 51.372 4.9973 59.6949 10.4866 66.0924L15.0401 62.1853ZM14.8846 66.2602L43.3598 37.785L39.1172 33.5424L10.642 62.0175L14.8846 66.2602ZM39.1172 37.785L41.7987 40.4665L46.0413 36.2239L43.3598 33.5424L39.1172 37.785ZM41.7987 36.2239L13.2696 64.7529L17.5122 68.9956L46.0413 40.4665L41.7987 36.2239ZM38.261 72.8647C30.2132 72.8647 22.8971 69.7602 17.4344 64.6778L13.3474 69.0706C19.8765 75.1451 28.6377 78.8647 38.261 78.8647V72.8647Z" fill="url(#paint0_linear_518_12036)" mask="url(#path-1-inside-1_518_12036)"/>
<path d="M73.1564 38.7691C75.5182 38.7691 77.589 36.8268 77.375 34.3016C77.0701 30.7047 76.2121 27.1701 74.8262 23.8241C73.0606 19.5616 70.4727 15.6885 67.2102 12.4261C63.9478 9.16363 60.0747 6.57573 55.8121 4.81011C52.4662 3.42416 48.9316 2.56619 45.3347 2.26129C42.8095 2.04724 40.8672 4.11807 40.8672 6.4799L40.8672 34.4249C40.8672 36.8241 42.8121 38.7691 45.2113 38.7691H73.1564Z" fill="white" stroke="url(#paint1_linear_518_12036)" stroke-width="3"/>
<defs>
<linearGradient id="paint0_linear_518_12036" x1="-0.28225" y1="39.8187" x2="75.3575" y2="39.8187" gradientUnits="userSpaceOnUse">
<stop stop-color="#00C6FF"/>
<stop offset="1" stop-color="#0072FF"/>
</linearGradient>
<linearGradient id="paint1_linear_518_12036" x1="39.8835" y1="19.2192" x2="77.7598" y2="19.2192" gradientUnits="userSpaceOnUse">
<stop stop-color="#00C6FF"/>
<stop offset="1" stop-color="#0072FF"/>
</linearGradient>
</defs>
</svg>
