<svg width="80" height="80" viewBox="0 0 80 80" fill="none" xmlns="http://www.w3.org/2000/svg">
<path fill-rule="evenodd" clip-rule="evenodd" d="M22.4734 41.4806L35.3472 60.8139C35.3733 60.8126 35.3995 60.8113 35.4257 60.81L37.3824 63.7429C37.3545 63.7435 37.3266 63.7441 37.2988 63.7447L39.125 66.4874L40.9954 63.7646C40.9615 63.7634 40.9275 63.7623 40.8935 63.7613L42.9327 60.8526C42.9529 60.8539 42.973 60.8551 42.9931 60.8563L56.3426 41.4226L56.3566 41.4021L56.3714 41.3821C63.4225 31.8132 62.9992 22.8381 59.1312 16.2723C55.2016 9.60204 47.6448 5.27832 40.1716 5.27832C32.57 5.27832 24.9099 8.78721 20.7807 14.9607C16.7222 21.0285 15.8613 30.0081 22.4734 41.4806ZM19.9497 43.1033L31.9183 61.0772C21.5742 62.155 14.0078 65.604 14.0078 69.6923C14.0078 74.6431 25.1038 78.6566 38.7914 78.6566C52.4789 78.6566 63.5749 74.6431 63.5749 69.6923C63.5749 65.7047 56.3765 62.3252 46.4234 61.1611L58.8014 43.1416C66.5004 32.6797 66.2326 22.4163 61.716 14.7496C57.2581 7.18252 48.7286 2.27832 40.1716 2.27832C31.7429 2.27832 23.0635 6.15177 18.2871 13.2928C13.4449 20.5324 12.8314 30.7854 19.8993 43.0222L19.9232 43.0635L19.9497 43.1033ZM55.2956 66.1747C52.4391 65.1415 48.7224 64.3558 44.4888 63.9774L40.3421 70.014L39.0864 71.8421L37.8572 69.9961L33.8097 63.9177C29.2791 64.2686 25.3035 65.0837 22.2872 66.1747C20.2346 66.9171 18.7851 67.7305 17.9052 68.483C17.0143 69.2448 17.0078 69.6644 17.0078 69.6923C17.0078 69.7201 17.0143 70.1398 17.9052 70.9016C18.7851 71.6541 20.2346 72.4675 22.2872 73.2099C26.3671 74.6856 32.2018 75.6566 38.7914 75.6566C45.3809 75.6566 51.2156 74.6856 55.2956 73.2099C57.3481 72.4675 58.7976 71.6541 59.6775 70.9016C60.5684 70.1398 60.5749 69.7201 60.5749 69.6923C60.5749 69.6644 60.5684 69.2448 59.6775 68.483C58.7976 67.7305 57.3481 66.9171 55.2956 66.1747ZM52.1426 26.98C52.1426 33.4774 46.8754 38.7447 40.378 38.7447C33.8805 38.7447 28.6133 33.4774 28.6133 26.98C28.6133 20.4826 33.8805 15.2153 40.378 15.2153C46.8754 15.2153 52.1426 20.4826 52.1426 26.98ZM55.1426 26.98C55.1426 35.1343 48.5323 41.7447 40.378 41.7447C32.2236 41.7447 25.6133 35.1343 25.6133 26.98C25.6133 18.8257 32.2236 12.2153 40.378 12.2153C48.5323 12.2153 55.1426 18.8257 55.1426 26.98ZM40.8981 18.0977C41.7266 18.0977 42.3981 18.7692 42.3981 19.5977V26.98V27.6013L41.9588 28.0406L37.213 32.7864C36.6272 33.3722 35.6775 33.3722 35.0917 32.7864C34.5059 32.2007 34.5059 31.2509 35.0917 30.6651L39.3981 26.3587V19.5977C39.3981 18.7692 40.0697 18.0977 40.8981 18.0977Z" fill="url(#paint0_linear_489_6384)"/>
<defs>
<linearGradient id="paint0_linear_489_6384" x1="10.2501" y1="37.6669" x2="67.5556" y2="37.6669" gradientUnits="userSpaceOnUse">
<stop stop-color="#00C6FF"/>
<stop offset="1" stop-color="#0072FF"/>
</linearGradient>
</defs>
</svg>
