<svg width="80" height="80" viewBox="0 0 80 80" fill="none" xmlns="http://www.w3.org/2000/svg">
<g id="square">
<path id="Union" fill-rule="evenodd" clip-rule="evenodd" d="M72.0031 10.8453V63.3463C72.0031 65.985 69.864 68.1242 67.2252 68.1242C64.5864 68.1242 62.4473 65.985 62.4473 63.3463V10.8453C62.4473 8.20653 64.5864 6.06738 67.2252 6.06738C69.864 6.06738 72.0031 8.20653 72.0031 10.8453ZM60.0526 7.83165C61.2301 5.03266 63.9981 3.06738 67.2252 3.06738C71.5208 3.06738 75.0031 6.54968 75.0031 10.8453V63.3463C75.0031 67.6419 71.5208 71.1242 67.2252 71.1242C63.9357 71.1242 61.1232 69.0822 59.9861 66.1966L59.3631 65.9243L28.4897 52.4317V71.9387C28.4897 75.1822 25.8604 77.8115 22.6169 77.8115C19.3735 77.8115 16.7441 75.1822 16.7441 71.9387V51.9815V51.8305C10.0253 50.3435 5 44.3511 5 37.1849V36.2193C5 27.9351 11.7157 21.2193 20 21.2193H25.418V20.9499L59.3631 8.09282L60.0526 7.83165ZM28.4911 49.1584V24.2193V22.9939L59.3631 11.3008V62.6504L28.4911 49.1584ZM19.7441 52.1827C19.8293 52.1841 19.9145 52.1849 20 52.1849H25.4897V71.9387C25.4897 73.5253 24.2035 74.8115 22.6169 74.8115C21.0303 74.8115 19.7441 73.5253 19.7441 71.9387V52.1827ZM25.418 24.2193H20C13.3726 24.2193 8 29.5919 8 36.2193V37.1849C8 43.0568 12.2175 47.9437 17.7886 48.9815H19.7441H25.418V24.2193Z" fill="url(#paint0_linear_381_4709)"/>
</g>
<defs>
<linearGradient id="paint0_linear_381_4709" x1="-0.16946" y1="37.6988" x2="78.6648" y2="37.6988" gradientUnits="userSpaceOnUse">
<stop stop-color="#00C6FF"/>
<stop offset="1" stop-color="#0072FF"/>
</linearGradient>
</defs>
</svg>
