<svg width="80" height="80" viewBox="0 0 80 80" fill="none" xmlns="http://www.w3.org/2000/svg">
<path d="M7.5 32C7.5 30.067 9.067 28.5 11 28.5H23C25.4853 28.5 27.5 30.5147 27.5 33V74.5H7.5V32Z" stroke="url(#paint0_linear_431_5576)" stroke-width="3"/>
<path d="M52.5 32C52.5 30.067 54.067 28.5 56 28.5H68C70.4853 28.5 72.5 30.5147 72.5 33V74.5H52.5V32Z" stroke="url(#paint1_linear_431_5576)" stroke-width="3"/>
<circle cx="17.5" cy="14.5" r="8" stroke="url(#paint2_linear_431_5576)" stroke-width="3"/>
<circle cx="62.5" cy="14.5" r="8" stroke="url(#paint3_linear_431_5576)" stroke-width="3"/>
<path d="M35 33L45 43" stroke="url(#paint4_linear_431_5576)" stroke-width="3" stroke-linecap="round"/>
<path d="M45 33L35 43" stroke="url(#paint5_linear_431_5576)" stroke-width="3" stroke-linecap="round"/>
<defs>
<linearGradient id="paint0_linear_431_5576" x1="4.30154" y1="49.7033" x2="30.2031" y2="49.7033" gradientUnits="userSpaceOnUse">
<stop stop-color="#00C6FF"/>
<stop offset="1" stop-color="#0072FF"/>
</linearGradient>
<linearGradient id="paint1_linear_431_5576" x1="49.3015" y1="49.7033" x2="75.2031" y2="49.7033" gradientUnits="userSpaceOnUse">
<stop stop-color="#00C6FF"/>
<stop offset="1" stop-color="#0072FF"/>
</linearGradient>
<linearGradient id="paint2_linear_431_5576" x1="6.59692" y1="13.8033" x2="27.9938" y2="13.8033" gradientUnits="userSpaceOnUse">
<stop stop-color="#00C6FF"/>
<stop offset="1" stop-color="#0072FF"/>
</linearGradient>
<linearGradient id="paint3_linear_431_5576" x1="51.5969" y1="13.8033" x2="72.9938" y2="13.8033" gradientUnits="userSpaceOnUse">
<stop stop-color="#00C6FF"/>
<stop offset="1" stop-color="#0072FF"/>
</linearGradient>
<linearGradient id="paint4_linear_431_5576" x1="34.2615" y1="37.6333" x2="45.5231" y2="37.6333" gradientUnits="userSpaceOnUse">
<stop stop-color="#00C6FF"/>
<stop offset="1" stop-color="#0072FF"/>
</linearGradient>
<linearGradient id="paint5_linear_431_5576" x1="40.3667" y1="32.2615" x2="40.3667" y2="43.5231" gradientUnits="userSpaceOnUse">
<stop stop-color="#00C6FF"/>
<stop offset="1" stop-color="#0072FF"/>
</linearGradient>
</defs>
</svg>
