<svg width="80" height="80" viewBox="0 0 80 80" fill="none" xmlns="http://www.w3.org/2000/svg">
<g id="pay">
<path id="Union" fill-rule="evenodd" clip-rule="evenodd" d="M70 20.6689H13C11.3431 20.6689 10 22.0121 10 23.6689V29.5H73V23.6689C73 22.0121 71.6569 20.6689 70 20.6689ZM10 57.3307V32.5H73V57.3307C73 58.9876 71.6569 60.3307 70 60.3307H13C11.3431 60.3307 10 58.9876 10 57.3307ZM13 17.6689C9.68629 17.6689 7 20.3552 7 23.6689V57.3307C7 60.6444 9.68629 63.3307 13 63.3307H70C73.3137 63.3307 76 60.6444 76 57.3307V23.6689C76 20.3552 73.3137 17.6689 70 17.6689H13ZM17 39.5C16.1716 39.5 15.5 40.1716 15.5 41C15.5 41.8284 16.1716 42.5 17 42.5L35 42.5C35.8284 42.5 36.5 41.8284 36.5 41C36.5 40.1716 35.8284 39.5 35 39.5L17 39.5ZM41.5 41C41.5 40.1716 42.1716 39.5 43 39.5H49C49.8284 39.5 50.5 40.1716 50.5 41C50.5 41.8284 49.8284 42.5 49 42.5H43C42.1716 42.5 41.5 41.8284 41.5 41ZM17 47.5C16.1716 47.5 15.5 48.1716 15.5 49C15.5 49.8284 16.1716 50.5 17 50.5L49 50.5C49.8284 50.5 50.5 49.8284 50.5 49C50.5 48.1716 49.8284 47.5 49 47.5L17 47.5Z" fill="url(#paint0_linear_493_7247)"/>
</g>
<defs>
<linearGradient id="paint0_linear_493_7247" x1="1.90462" y1="38.8256" x2="79.6092" y2="38.8256" gradientUnits="userSpaceOnUse">
<stop stop-color="#00C6FF"/>
<stop offset="1" stop-color="#0072FF"/>
</linearGradient>
</defs>
</svg>
