<svg width="80" height="80" viewBox="0 0 80 80" fill="none" xmlns="http://www.w3.org/2000/svg">
<mask id="path-1-inside-1_381_4707" fill="white">
<path fill-rule="evenodd" clip-rule="evenodd" d="M74.9823 40.8947C74.753 48.3621 71.9571 55.1835 67.4471 60.5064L65.9443 59.0036C65.3083 58.3676 64.2772 58.3676 63.6412 59.0036C63.0052 59.6396 63.0052 60.6707 63.6412 61.3067L65.1766 62.8421C65.1901 62.8556 65.2038 62.8688 65.2176 62.8818C60.0659 67.8405 53.2509 71.0835 45.6922 71.6913C45.7223 71.5676 45.7383 71.4383 45.7383 71.3053V69.1339C45.7383 68.2345 45.0092 67.5054 44.1097 67.5054C43.2103 67.5054 42.4812 68.2345 42.4812 69.1339V71.3053C42.4812 71.4743 42.5069 71.6373 42.5547 71.7906C37.7198 71.7095 33.1468 70.5527 29.0646 68.5491C28.0501 68.0512 26.8124 68.761 26.8124 69.8911C26.8124 70.431 27.1098 70.929 27.5934 71.1692C32.2648 73.4902 37.5301 74.7951 43.1002 74.7951C62.3735 74.7951 77.9975 59.1711 77.9975 39.8978C77.9975 20.6246 62.3735 5.00049 43.1002 5.00049C37.5301 5.00049 32.2648 6.30549 27.5934 8.62642C27.1098 8.86666 26.8124 9.36459 26.8124 9.90453C26.8124 11.0346 28.0501 11.7444 29.0646 11.2465C33.0385 9.29607 37.4777 8.14807 42.1707 8.01377V11.238C42.1707 12.1374 42.8998 12.8665 43.7992 12.8665C44.6987 12.8665 45.4278 12.1374 45.4278 11.238V8.08411C52.622 8.60294 59.1552 11.5078 64.24 16.0112C64.0597 16.0903 63.8908 16.2036 63.7432 16.3512L62.2078 17.8866C61.5718 18.5226 61.5718 19.5538 62.2078 20.1898C62.8438 20.8257 63.8749 20.8257 64.5109 20.1898L66.0463 18.6544C66.2049 18.4957 66.324 18.3125 66.4035 18.117C71.3346 23.3906 74.4965 30.3393 74.943 38.0168C74.7201 37.9023 74.4674 37.8376 74.1996 37.8376H72.0282C71.1288 37.8376 70.3997 38.5668 70.3997 39.4662C70.3997 40.3656 71.1288 41.0947 72.0282 41.0947H74.1996C74.4833 41.0947 74.75 41.0222 74.9823 40.8947ZM15.1855 19.8121C15.1855 18.9127 15.9147 18.1836 16.8141 18.1836H32.1689C33.0683 18.1836 33.7975 18.9127 33.7975 19.8121C33.7975 20.7116 33.0683 21.4407 32.1689 21.4407H16.8141C15.9147 21.4407 15.1855 20.7116 15.1855 19.8121ZM16.8141 60.8364C15.9147 60.8364 15.1855 60.1073 15.1855 59.2079C15.1855 58.3085 15.9147 57.5793 16.8141 57.5793H32.1689C33.0683 57.5793 33.7975 58.3085 33.7975 59.2079C33.7975 60.1073 33.0683 60.8364 32.1689 60.8364H16.8141ZM7.42773 29.8937C7.42773 28.9943 8.15686 28.2651 9.05628 28.2651H28.2886C29.188 28.2651 29.9171 28.9943 29.9171 29.8937C29.9171 30.7931 29.188 31.5222 28.2886 31.5222H9.05628C8.15686 31.5222 7.42773 30.7931 7.42773 29.8937ZM9.05628 50.7544C8.15686 50.7544 7.42773 50.0253 7.42773 49.1259C7.42773 48.2264 8.15686 47.4973 9.05628 47.4973H28.2886C29.188 47.4973 29.9171 48.2264 29.9171 49.1259C29.9171 50.0253 29.188 50.7544 28.2886 50.7544H9.05628ZM2 39.9755C2 39.0761 2.72912 38.347 3.62854 38.347H25.1873C26.0868 38.347 26.8159 39.0761 26.8159 39.9755C26.8159 40.8749 26.0868 41.6041 25.1873 41.6041H3.62854C2.72913 41.6041 2 40.8749 2 39.9755ZM57.7461 25.723C58.3404 26.3002 58.3543 27.2498 57.7771 27.8441L49.8488 36.0077C50.4865 37.0224 50.8553 38.2232 50.8553 39.5102C50.8553 43.1507 47.9041 46.1019 44.2636 46.1019C43.0456 46.1019 41.9047 45.7715 40.9257 45.1955L38.7498 47.436C38.1727 48.0303 37.223 48.0442 36.6287 47.467C36.0344 46.8898 36.0206 45.9402 36.5977 45.3459L38.7522 43.1275C38.0692 42.089 37.6719 40.846 37.6719 39.5102C37.6719 35.8697 40.6231 32.9185 44.2636 32.9185C45.5304 32.9185 46.7138 33.2758 47.7184 33.8953L55.625 25.754C56.2022 25.1597 57.1518 25.1459 57.7461 25.723Z"/>
</mask>
<path fill-rule="evenodd" clip-rule="evenodd" d="M74.9823 40.8947C74.753 48.3621 71.9571 55.1835 67.4471 60.5064L65.9443 59.0036C65.3083 58.3676 64.2772 58.3676 63.6412 59.0036C63.0052 59.6396 63.0052 60.6707 63.6412 61.3067L65.1766 62.8421C65.1901 62.8556 65.2038 62.8688 65.2176 62.8818C60.0659 67.8405 53.2509 71.0835 45.6922 71.6913C45.7223 71.5676 45.7383 71.4383 45.7383 71.3053V69.1339C45.7383 68.2345 45.0092 67.5054 44.1097 67.5054C43.2103 67.5054 42.4812 68.2345 42.4812 69.1339V71.3053C42.4812 71.4743 42.5069 71.6373 42.5547 71.7906C37.7198 71.7095 33.1468 70.5527 29.0646 68.5491C28.0501 68.0512 26.8124 68.761 26.8124 69.8911C26.8124 70.431 27.1098 70.929 27.5934 71.1692C32.2648 73.4902 37.5301 74.7951 43.1002 74.7951C62.3735 74.7951 77.9975 59.1711 77.9975 39.8978C77.9975 20.6246 62.3735 5.00049 43.1002 5.00049C37.5301 5.00049 32.2648 6.30549 27.5934 8.62642C27.1098 8.86666 26.8124 9.36459 26.8124 9.90453C26.8124 11.0346 28.0501 11.7444 29.0646 11.2465C33.0385 9.29607 37.4777 8.14807 42.1707 8.01377V11.238C42.1707 12.1374 42.8998 12.8665 43.7992 12.8665C44.6987 12.8665 45.4278 12.1374 45.4278 11.238V8.08411C52.622 8.60294 59.1552 11.5078 64.24 16.0112C64.0597 16.0903 63.8908 16.2036 63.7432 16.3512L62.2078 17.8866C61.5718 18.5226 61.5718 19.5538 62.2078 20.1898C62.8438 20.8257 63.8749 20.8257 64.5109 20.1898L66.0463 18.6544C66.2049 18.4957 66.324 18.3125 66.4035 18.117C71.3346 23.3906 74.4965 30.3393 74.943 38.0168C74.7201 37.9023 74.4674 37.8376 74.1996 37.8376H72.0282C71.1288 37.8376 70.3997 38.5668 70.3997 39.4662C70.3997 40.3656 71.1288 41.0947 72.0282 41.0947H74.1996C74.4833 41.0947 74.75 41.0222 74.9823 40.8947ZM15.1855 19.8121C15.1855 18.9127 15.9147 18.1836 16.8141 18.1836H32.1689C33.0683 18.1836 33.7975 18.9127 33.7975 19.8121C33.7975 20.7116 33.0683 21.4407 32.1689 21.4407H16.8141C15.9147 21.4407 15.1855 20.7116 15.1855 19.8121ZM16.8141 60.8364C15.9147 60.8364 15.1855 60.1073 15.1855 59.2079C15.1855 58.3085 15.9147 57.5793 16.8141 57.5793H32.1689C33.0683 57.5793 33.7975 58.3085 33.7975 59.2079C33.7975 60.1073 33.0683 60.8364 32.1689 60.8364H16.8141ZM7.42773 29.8937C7.42773 28.9943 8.15686 28.2651 9.05628 28.2651H28.2886C29.188 28.2651 29.9171 28.9943 29.9171 29.8937C29.9171 30.7931 29.188 31.5222 28.2886 31.5222H9.05628C8.15686 31.5222 7.42773 30.7931 7.42773 29.8937ZM9.05628 50.7544C8.15686 50.7544 7.42773 50.0253 7.42773 49.1259C7.42773 48.2264 8.15686 47.4973 9.05628 47.4973H28.2886C29.188 47.4973 29.9171 48.2264 29.9171 49.1259C29.9171 50.0253 29.188 50.7544 28.2886 50.7544H9.05628ZM2 39.9755C2 39.0761 2.72912 38.347 3.62854 38.347H25.1873C26.0868 38.347 26.8159 39.0761 26.8159 39.9755C26.8159 40.8749 26.0868 41.6041 25.1873 41.6041H3.62854C2.72913 41.6041 2 40.8749 2 39.9755ZM57.7461 25.723C58.3404 26.3002 58.3543 27.2498 57.7771 27.8441L49.8488 36.0077C50.4865 37.0224 50.8553 38.2232 50.8553 39.5102C50.8553 43.1507 47.9041 46.1019 44.2636 46.1019C43.0456 46.1019 41.9047 45.7715 40.9257 45.1955L38.7498 47.436C38.1727 48.0303 37.223 48.0442 36.6287 47.467C36.0344 46.8898 36.0206 45.9402 36.5977 45.3459L38.7522 43.1275C38.0692 42.089 37.6719 40.846 37.6719 39.5102C37.6719 35.8697 40.6231 32.9185 44.2636 32.9185C45.5304 32.9185 46.7138 33.2758 47.7184 33.8953L55.625 25.754C56.2022 25.1597 57.1518 25.1459 57.7461 25.723Z" fill="white"/>
<path d="M67.4471 60.5064L65.3257 62.6277L67.6296 64.9316L69.7359 62.4457L67.4471 60.5064ZM74.9823 40.8947L77.9809 40.9867L78.142 35.7372L73.5384 38.265L74.9823 40.8947ZM65.9443 59.0036L68.0656 56.8823L65.9443 59.0036ZM63.6412 59.0036L61.5198 56.8823L61.5198 56.8823L63.6412 59.0036ZM65.2176 62.8818L67.2981 65.0432L69.5784 62.8483L67.2646 60.6887L65.2176 62.8818ZM45.6922 71.6913L42.7771 70.9827L41.7972 75.0143L45.9327 74.6817L45.6922 71.6913ZM42.5547 71.7906L42.5044 74.7902L46.6538 74.8597L45.4188 70.8978L42.5547 71.7906ZM29.0646 68.5491L27.7428 71.2423H27.7428L29.0646 68.5491ZM27.5934 71.1692L28.9282 68.4825L28.9282 68.4825L27.5934 71.1692ZM27.5934 8.62642L26.2585 5.93974L26.2585 5.93975L27.5934 8.62642ZM29.0646 11.2465L27.7428 8.55337L27.7428 8.55337L29.0646 11.2465ZM42.1707 8.01377H45.1707V4.92669L42.0849 5.015L42.1707 8.01377ZM45.4278 8.08411L45.6436 5.09189L42.4278 4.85997V8.08411H45.4278ZM64.24 16.0112L65.4452 18.7585L69.7398 16.8747L66.2291 13.7654L64.24 16.0112ZM63.7432 16.3512L65.8645 18.4726L65.8646 18.4726L63.7432 16.3512ZM62.2078 17.8866L60.0865 15.7653L60.0865 15.7653L62.2078 17.8866ZM62.2078 20.1898L60.0865 22.3111L60.0865 22.3111L62.2078 20.1898ZM64.5109 20.1898L66.6322 22.3111V22.3111L64.5109 20.1898ZM66.0463 18.6544L68.1677 20.7757L68.1677 20.7757L66.0463 18.6544ZM66.4035 18.117L68.5948 16.068L65.3912 12.6419L63.6244 16.987L66.4035 18.117ZM74.943 38.0168L73.5716 40.6851L78.2428 43.0859L77.9379 37.8427L74.943 38.0168ZM57.7771 27.8441L55.625 25.754L55.625 25.754L57.7771 27.8441ZM57.7461 25.723L59.8362 23.5709L59.8362 23.5709L57.7461 25.723ZM49.8488 36.0077L47.6967 33.9176L46.0547 35.6083L47.3087 37.6039L49.8488 36.0077ZM40.9257 45.1955L42.447 42.6099L40.4157 41.4147L38.7736 43.1054L40.9257 45.1955ZM38.7498 47.436L36.5977 45.3459L36.5977 45.3459L38.7498 47.436ZM36.5977 45.3459L38.7498 47.436L38.7498 47.436L36.5977 45.3459ZM38.7522 43.1275L40.9043 45.2176L42.5816 43.4905L41.2587 41.479L38.7522 43.1275ZM47.7184 33.8953L46.1438 36.4488L48.1932 37.7124L49.8705 35.9853L47.7184 33.8953ZM55.625 25.754L53.4729 23.6639L53.4729 23.6639L55.625 25.754ZM69.7359 62.4457C74.6688 56.624 77.73 49.1568 77.9809 40.9867L71.9837 40.8026C71.776 47.5675 69.2455 53.7431 65.1582 58.567L69.7359 62.4457ZM63.823 61.1249L65.3257 62.6277L69.5684 58.3851L68.0656 56.8823L63.823 61.1249ZM65.7625 61.1249C65.2269 61.6605 64.3585 61.6605 63.823 61.1249L68.0656 56.8823C66.258 55.0747 63.3274 55.0747 61.5198 56.8823L65.7625 61.1249ZM65.7625 59.1854C66.2981 59.721 66.2981 60.5893 65.7625 61.1249L61.5198 56.8823C59.7123 58.6898 59.7123 61.6205 61.5199 63.428L65.7625 59.1854ZM67.2979 60.7208L65.7625 59.1854L61.5199 63.428L63.0553 64.9634L67.2979 60.7208ZM67.2646 60.6887C67.2753 60.6986 67.2864 60.7093 67.2979 60.7208L63.0553 64.9634C63.0937 65.0019 63.1322 65.039 63.1706 65.0749L67.2646 60.6887ZM45.9327 74.6817C54.2067 74.0163 61.6652 70.465 67.2981 65.0432L63.1372 60.7203C58.4666 65.2159 52.2952 68.1507 45.4518 68.701L45.9327 74.6817ZM42.7383 71.3053C42.7383 71.1977 42.7513 71.0891 42.7771 70.9827L48.6074 72.3999C48.6934 72.0461 48.7383 71.6789 48.7383 71.3053H42.7383ZM42.7383 69.1339V71.3053H48.7383V69.1339H42.7383ZM44.1097 70.5054C43.3523 70.5054 42.7383 69.8913 42.7383 69.1339H48.7383C48.7383 66.5776 46.666 64.5054 44.1097 64.5054V70.5054ZM45.4812 69.1339C45.4812 69.8913 44.8672 70.5054 44.1097 70.5054V64.5054C41.5535 64.5054 39.4812 66.5776 39.4812 69.1339H45.4812ZM45.4812 71.3053V69.1339H39.4812V71.3053H45.4812ZM45.4188 70.8978C45.4601 71.0301 45.4812 71.168 45.4812 71.3053H39.4812C39.4812 71.7806 39.5538 72.2445 39.6907 72.6834L45.4188 70.8978ZM27.7428 71.2423C32.2125 73.436 37.2188 74.7015 42.5044 74.7902L42.605 68.791C38.2208 68.7175 34.0811 67.6694 30.3864 65.856L27.7428 71.2423ZM29.8124 69.8911C29.8124 70.5025 29.4571 70.9732 29.0785 71.1958C28.7138 71.4102 28.2096 71.4714 27.7428 71.2423L30.3864 65.856C27.5551 64.4664 23.8124 66.347 23.8124 69.8911H29.8124ZM28.9282 68.4825C29.5029 68.7681 29.8124 69.3353 29.8124 69.8911H23.8124C23.8124 71.5268 24.7167 73.0899 26.2585 73.8559L28.9282 68.4825ZM43.1002 71.7951C38.0035 71.7951 33.1941 70.602 28.9282 68.4825L26.2585 73.8559C31.3355 76.3783 37.0567 77.7951 43.1002 77.7951V71.7951ZM74.9975 39.8978C74.9975 57.5142 60.7166 71.7951 43.1002 71.7951V77.7951C64.0303 77.7951 80.9975 60.8279 80.9975 39.8978H74.9975ZM43.1002 8.00049C60.7166 8.00049 74.9975 22.2814 74.9975 39.8978H80.9975C80.9975 18.9677 64.0303 2.00049 43.1002 2.00049V8.00049ZM28.9282 11.3131C33.1941 9.19363 38.0035 8.00049 43.1002 8.00049V2.00049C37.0567 2.00049 31.3355 3.41735 26.2585 5.93974L28.9282 11.3131ZM29.8124 9.90453C29.8124 10.4604 29.5029 11.0275 28.9282 11.3131L26.2585 5.93975C24.7167 6.70579 23.8124 8.26883 23.8124 9.90453H29.8124ZM27.7428 8.55337C28.2096 8.32426 28.7138 8.38541 29.0785 8.59981C29.4571 8.8224 29.8124 9.29317 29.8124 9.90453H23.8124C23.8124 13.4486 27.5551 15.3292 30.3864 13.9396L27.7428 8.55337ZM42.0849 5.015C36.9536 5.16184 32.0938 6.41787 27.7428 8.55337L30.3864 13.9396C33.9832 12.1743 38.0017 11.1343 42.2565 11.0125L42.0849 5.015ZM45.1707 11.238V8.01377H39.1707V11.238H45.1707ZM43.7992 9.86654C44.5567 9.86654 45.1707 10.4806 45.1707 11.238H39.1707C39.1707 13.7943 41.243 15.8665 43.7992 15.8665V9.86654ZM42.4278 11.238C42.4278 10.4806 43.0418 9.86654 43.7992 9.86654V15.8665C46.3555 15.8665 48.4278 13.7943 48.4278 11.238H42.4278ZM42.4278 8.08411V11.238H48.4278V8.08411H42.4278ZM66.2291 13.7654C60.6686 8.84062 53.5176 5.65973 45.6436 5.09189L45.212 11.0763C51.7264 11.5461 57.6419 14.1749 62.251 18.257L66.2291 13.7654ZM65.8646 18.4726C65.7441 18.5931 65.6009 18.6902 65.4452 18.7585L63.0349 13.2639C62.5185 13.4904 62.0376 13.8142 61.6219 14.2299L65.8646 18.4726ZM64.3291 20.008L65.8645 18.4726L61.6219 14.2299L60.0865 15.7653L64.3291 20.008ZM64.3291 18.0684C64.8647 18.604 64.8647 19.4724 64.3291 20.008L60.0865 15.7653C58.2789 17.5729 58.2789 20.5035 60.0865 22.3111L64.3291 18.0684ZM62.3896 18.0684C62.9252 17.5328 63.7936 17.5328 64.3291 18.0684L60.0865 22.3111C61.8941 24.1186 64.8247 24.1186 66.6322 22.3111L62.3896 18.0684ZM63.925 16.533L62.3896 18.0684L66.6322 22.3111L68.1677 20.7757L63.925 16.533ZM63.6244 16.987C63.6931 16.8182 63.7953 16.6627 63.925 16.5331L68.1677 20.7757C68.6146 20.3287 68.9549 19.8068 69.1826 19.247L63.6244 16.987ZM77.9379 37.8427C77.4493 29.4401 73.9868 21.8346 68.5948 16.068L64.2122 20.166C68.6824 24.9466 71.5438 31.2385 71.9481 38.191L77.9379 37.8427ZM74.1996 40.8376C73.9793 40.8376 73.763 40.7834 73.5716 40.6851L76.3144 35.3486C75.6772 35.0212 74.9555 34.8376 74.1996 34.8376V40.8376ZM72.0282 40.8376H74.1996V34.8376H72.0282V40.8376ZM73.3997 39.4662C73.3997 40.2236 72.7856 40.8376 72.0282 40.8376V34.8376C69.4719 34.8376 67.3997 36.9099 67.3997 39.4662H73.3997ZM72.0282 38.0947C72.7856 38.0947 73.3997 38.7087 73.3997 39.4662H67.3997C67.3997 42.0225 69.4719 44.0947 72.0282 44.0947V38.0947ZM74.1996 38.0947H72.0282V44.0947H74.1996V38.0947ZM73.5384 38.265C73.7373 38.1557 73.9658 38.0947 74.1996 38.0947V44.0947C75.0007 44.0947 75.7627 43.8886 76.4261 43.5243L73.5384 38.265ZM16.8141 15.1836C14.2578 15.1836 12.1855 17.2559 12.1855 19.8121H18.1855C18.1855 20.5696 17.5715 21.1836 16.8141 21.1836V15.1836ZM32.1689 15.1836H16.8141V21.1836H32.1689V15.1836ZM36.7975 19.8121C36.7975 17.2559 34.7252 15.1836 32.1689 15.1836V21.1836C31.4115 21.1836 30.7975 20.5696 30.7975 19.8121H36.7975ZM32.1689 24.4407C34.7252 24.4407 36.7975 22.3684 36.7975 19.8121H30.7975C30.7975 19.0547 31.4115 18.4407 32.1689 18.4407V24.4407ZM16.8141 24.4407H32.1689V18.4407H16.8141V24.4407ZM12.1855 19.8121C12.1855 22.3684 14.2578 24.4407 16.8141 24.4407V18.4407C17.5715 18.4407 18.1855 19.0547 18.1855 19.8121H12.1855ZM12.1855 59.2079C12.1855 61.7642 14.2578 63.8364 16.8141 63.8364V57.8364C17.5715 57.8364 18.1855 58.4504 18.1855 59.2079H12.1855ZM16.8141 54.5793C14.2578 54.5793 12.1855 56.6516 12.1855 59.2079H18.1855C18.1855 59.9653 17.5715 60.5793 16.8141 60.5793V54.5793ZM32.1689 54.5793H16.8141V60.5793H32.1689V54.5793ZM36.7975 59.2079C36.7975 56.6516 34.7252 54.5793 32.1689 54.5793V60.5793C31.4115 60.5793 30.7975 59.9653 30.7975 59.2079H36.7975ZM32.1689 63.8364C34.7252 63.8364 36.7975 61.7642 36.7975 59.2079H30.7975C30.7975 58.4505 31.4115 57.8364 32.1689 57.8364V63.8364ZM16.8141 63.8364H32.1689V57.8364H16.8141V63.8364ZM9.05628 25.2651C6.5 25.2651 4.42773 27.3374 4.42773 29.8937H10.4277C10.4277 30.6511 9.81371 31.2651 9.05628 31.2651V25.2651ZM28.2886 25.2651H9.05628V31.2651H28.2886V25.2651ZM32.9171 29.8937C32.9171 27.3374 30.8449 25.2651 28.2886 25.2651V31.2651C27.5311 31.2651 26.9171 30.6511 26.9171 29.8937H32.9171ZM28.2886 34.5222C30.8449 34.5222 32.9171 32.4499 32.9171 29.8937H26.9171C26.9171 29.1362 27.5311 28.5222 28.2886 28.5222V34.5222ZM9.05628 34.5222H28.2886V28.5222H9.05628V34.5222ZM4.42773 29.8937C4.42773 32.45 6.5 34.5222 9.05628 34.5222V28.5222C9.81371 28.5222 10.4277 29.1362 10.4277 29.8937H4.42773ZM4.42773 49.1259C4.42773 51.6821 6.5 53.7544 9.05628 53.7544V47.7544C9.81371 47.7544 10.4277 48.3684 10.4277 49.1259H4.42773ZM9.05628 44.4973C6.5 44.4973 4.42773 46.5696 4.42773 49.1259H10.4277C10.4277 49.8833 9.81371 50.4973 9.05628 50.4973V44.4973ZM28.2886 44.4973H9.05628V50.4973H28.2886V44.4973ZM32.9171 49.1259C32.9171 46.5696 30.8449 44.4973 28.2886 44.4973V50.4973C27.5311 50.4973 26.9171 49.8833 26.9171 49.1259H32.9171ZM28.2886 53.7544C30.8448 53.7544 32.9171 51.6821 32.9171 49.1259H26.9171C26.9171 48.3684 27.5311 47.7544 28.2886 47.7544V53.7544ZM9.05628 53.7544H28.2886V47.7544H9.05628V53.7544ZM3.62854 35.347C1.07227 35.347 -1 37.4192 -1 39.9755H5C5 40.7329 4.38598 41.347 3.62854 41.347V35.347ZM25.1873 35.347H3.62854V41.347H25.1873V35.347ZM29.8159 39.9755C29.8159 37.4192 27.7436 35.347 25.1873 35.347V41.347C24.4299 41.347 23.8159 40.733 23.8159 39.9755H29.8159ZM25.1873 44.6041C27.7436 44.6041 29.8159 42.5318 29.8159 39.9755H23.8159C23.8159 39.2181 24.4299 38.6041 25.1873 38.6041V44.6041ZM3.62854 44.6041H25.1873V38.6041H3.62854V44.6041ZM-1 39.9755C-1 42.5318 1.07227 44.6041 3.62854 44.6041V38.6041C4.38598 38.6041 5 39.2181 5 39.9755H-1ZM59.9292 29.9342C61.6607 28.1513 61.619 25.3024 59.8362 23.5709L55.656 27.8751C55.0617 27.298 55.0478 26.3483 55.625 25.754L59.9292 29.9342ZM52.0009 38.0977L59.9292 29.9342L55.625 25.754L47.6967 33.9176L52.0009 38.0977ZM47.3087 37.6039C47.6547 38.1545 47.8553 38.8043 47.8553 39.5102H53.8553C53.8553 37.6421 53.3183 35.8903 52.3889 34.4114L47.3087 37.6039ZM47.8553 39.5102C47.8553 41.4938 46.2472 43.1019 44.2636 43.1019V49.1019C49.561 49.1019 53.8553 44.8075 53.8553 39.5102H47.8553ZM44.2636 43.1019C43.595 43.1019 42.9775 42.922 42.447 42.6099L39.4044 47.7812C40.8319 48.6211 42.4962 49.1019 44.2636 49.1019V43.1019ZM40.9019 49.5261L43.0778 47.2856L38.7736 43.1054L36.5977 45.3459L40.9019 49.5261ZM34.5387 49.6191C36.3215 51.3506 39.1704 51.3089 40.9019 49.5261L36.5977 45.3459C37.1749 44.7516 38.1245 44.7377 38.7188 45.3149L34.5387 49.6191ZM34.4456 43.2558C32.7141 45.0387 32.7558 47.8876 34.5387 49.6191L38.7188 45.3149C39.3131 45.8921 39.327 46.8417 38.7498 47.436L34.4456 43.2558ZM36.6001 41.0374L34.4456 43.2558L38.7498 47.436L40.9043 45.2176L36.6001 41.0374ZM41.2587 41.479C40.8878 40.9151 40.6719 40.2424 40.6719 39.5102H34.6719C34.6719 41.4496 35.2507 43.263 36.2457 44.776L41.2587 41.479ZM40.6719 39.5102C40.6719 37.5265 42.2799 35.9185 44.2636 35.9185V29.9185C38.9662 29.9185 34.6719 34.2128 34.6719 39.5102H40.6719ZM44.2636 35.9185C44.9586 35.9185 45.599 36.1129 46.1438 36.4488L49.2929 31.3417C47.8286 30.4388 46.1023 29.9185 44.2636 29.9185V35.9185ZM53.4729 23.6639L45.5663 31.8052L49.8705 35.9853L57.7771 27.8441L53.4729 23.6639ZM59.8362 23.5709C58.0533 21.8394 55.2044 21.8811 53.4729 23.6639L57.7771 27.8441C57.1999 28.4384 56.2503 28.4523 55.656 27.8751L59.8362 23.5709Z" fill="url(#paint0_linear_381_4707)" mask="url(#path-1-inside-1_381_4707)"/>
<defs>
<linearGradient id="paint0_linear_381_4707" x1="-3.61213" y1="37.3387" x2="81.9728" y2="37.3387" gradientUnits="userSpaceOnUse">
<stop stop-color="#00C6FF"/>
<stop offset="1" stop-color="#0072FF"/>
</linearGradient>
</defs>
</svg>
